<svg width="18" height="15" viewBox="0 0 18 15" fill="none" xmlns="http://www.w3.org/2000/svg">
<path d="M1 6.5C0.447715 6.5 0 6.94772 0 7.5C0 8.05228 0.447715 8.5 1 8.5V6.5ZM17.2071 8.20711C17.5976 7.81658 17.5976 7.18342 17.2071 6.79289L10.8431 0.428932C10.4526 0.0384078 9.81946 0.0384078 9.42893 0.428932C9.03841 0.819457 9.03841 1.45262 9.42893 1.84315L15.0858 7.5L9.42893 13.1569C9.03841 13.5474 9.03841 14.1805 9.42893 14.5711C9.81946 14.9616 10.4526 14.9616 10.8431 14.5711L17.2071 8.20711ZM1 8.5H16.5V6.5H1V8.5Z" fill="#FF7220"/>
</svg>
