<svg width="76" height="76" viewBox="0 0 76 76" fill="none" xmlns="http://www.w3.org/2000/svg">
<path d="M13.1645 0C14.8189 0.387819 16.0321 1.42347 17.1615 2.62219C18.2071 3.73276 19.3188 4.78163 20.3953 5.86576C21.2865 6.7648 21.335 7.29364 20.6115 8.35574C21.2776 9.03001 21.8688 9.82328 22.6453 10.3433C23.2144 10.7223 24.0261 10.8722 24.732 10.8898C26.254 10.9206 27.7805 10.7884 29.3069 10.7488C33.8378 10.6298 37.6803 12.2736 40.8965 15.3982C43.1597 17.5929 45.3655 19.8405 47.5934 22.0704C48.3522 22.8328 48.4008 23.7098 47.7478 24.3401C47.1081 24.9614 46.2832 24.9042 45.5243 24.1726C44.9773 23.6437 44.4347 23.1061 43.8876 22.5728C43.87 22.5552 43.8435 22.5508 43.7508 22.5111C42.3126 23.9522 40.8303 25.3889 39.4053 26.8829C38.8053 27.5131 38.1436 27.8172 37.2877 27.9009C32.4966 28.3769 28.4202 32.4402 27.9349 37.213C27.8467 38.0636 27.5687 38.7378 26.9334 39.3416C25.4379 40.7651 23.9997 42.2458 22.5879 43.6561C27.3702 48.4333 32.1172 53.1753 36.9215 57.9745C38.223 56.6701 39.6259 55.3303 40.9494 53.9201C41.6773 53.1488 42.467 52.739 43.5391 52.5847C48.5728 51.8576 52.1948 48.0058 52.7728 42.9598C52.8345 42.4265 53.1301 41.8316 53.5051 41.4393C54.9918 39.8704 56.5492 38.3676 58.2124 36.715C57.1668 35.7146 56.1477 34.7627 55.1551 33.7799C54.6477 33.2731 54.5595 32.6517 54.9257 32.0215C55.2742 31.4222 55.8345 31.1754 56.4963 31.334C56.8095 31.4089 57.1315 31.6161 57.3653 31.8496C62.6859 37.1469 68.0505 42.4045 73.2916 47.7811C77.8577 52.4657 75.6386 60.0326 69.2946 61.6632C68.8314 61.7822 68.6858 61.9893 68.5711 62.4168C67.6976 65.5987 65.6549 67.6392 62.4653 68.5074C62.0771 68.6131 61.8565 68.7145 61.7373 69.1684C60.0697 75.66 52.4375 77.7709 47.6464 73.0554C43.892 69.3623 40.1862 65.6163 36.4583 61.8924C29.6466 55.0879 22.8438 48.2791 16.0233 41.4834C13.716 39.1829 11.9381 36.5784 11.166 33.3657C10.6322 31.1313 10.7337 28.8705 10.8351 26.6097C10.8396 26.5612 10.8351 26.5127 10.8484 26.4642C11.3116 23.9787 10.5572 22.0043 8.31606 20.6646C7.15137 21.3124 6.76755 21.2595 5.7661 20.2591C4.70288 19.197 3.66613 18.1085 2.57203 17.0817C1.38969 15.9711 0.383818 14.768 0 13.1462C0 12.5556 0 11.9651 0 11.3746C0.392641 9.73514 1.43822 8.53643 2.62055 7.40382C4.24847 5.84373 5.84551 4.24838 7.40725 2.62219C8.54106 1.4411 9.73663 0.392226 11.3822 0.00440714C11.9822 1.00968e-07 12.5734 0 13.1645 0ZM58.7991 68.5911C57.1801 68.2165 55.7992 67.4937 54.661 66.3523C54.1316 65.8235 54.0301 65.1139 54.3919 64.5322C54.7536 63.9505 55.3007 63.6728 55.9624 63.8491C56.2977 63.9373 56.6154 64.1796 56.8889 64.4132C58.0271 65.3872 59.333 65.8896 60.8285 65.7706C63.0432 65.5987 64.6402 64.4661 65.4696 62.4212C66.299 60.372 65.902 58.4681 64.4549 56.789C63.7226 55.9385 63.6829 55.132 64.3491 54.5106C65.0241 53.8804 65.8976 53.9994 66.6696 54.8367C67.6931 55.9473 68.324 57.2606 68.6814 58.7502C68.8314 58.7149 68.9461 58.7017 69.0608 58.662C72.8681 57.4281 73.9798 52.6729 71.1078 49.7378C68.249 46.8203 65.3329 43.9558 62.4476 41.0647C61.7241 40.3376 61.0094 39.5972 60.2638 38.8348C58.7418 40.3508 57.2948 41.7875 55.8654 43.2418C55.711 43.3961 55.6448 43.6737 55.6139 43.9073C54.7669 49.9185 49.9625 54.731 43.9979 55.5374C43.7817 55.5683 43.5126 55.5903 43.3758 55.7225C41.8891 57.1857 40.4244 58.6664 38.9465 60.1472C39.048 60.2662 39.1053 60.3455 39.1759 60.4116C42.7097 63.9417 46.2435 67.4761 49.7816 71.0061C50.0066 71.2309 50.2537 71.438 50.5096 71.6275C53.5536 73.8443 58.0403 72.2313 58.7991 68.5911ZM20.36 41.7478C21.8997 40.201 23.3335 38.7775 24.7364 37.332C24.9041 37.1601 24.9614 36.8604 25.0099 36.6048C26.082 30.8096 29.404 26.9358 35.0863 25.3713C36.7715 24.9086 38.0598 24.1946 39.1803 22.943C39.9788 22.0528 40.8744 21.2507 41.7126 20.4266C40.72 19.413 39.82 18.4699 38.8892 17.5576C36.0921 14.8032 32.7348 13.4899 28.7952 13.6971C27.3923 13.772 25.9893 13.8425 24.5864 13.8513C22.76 13.8645 21.1497 13.3092 19.9144 11.8814C19.4821 11.3834 19.0012 10.925 18.5865 10.4931C15.8777 13.2035 13.2395 15.8389 10.5131 18.5624C11.0822 19.1089 11.7087 19.695 12.3219 20.2944C13.1822 21.1361 13.6851 22.1718 13.7733 23.3617C13.8483 24.3621 13.8439 25.3757 13.8351 26.3805C13.8263 27.6101 13.7336 28.8396 13.7469 30.0692C13.7689 32.7134 14.5674 35.1285 16.2218 37.1822C17.4792 38.7511 18.9174 40.1745 20.36 41.7478ZM17.3733 7.1438C16.2262 5.97153 15.0616 4.70231 13.8086 3.52563C12.9175 2.68388 11.541 2.73236 10.6543 3.60055C8.28518 5.92746 5.93374 8.272 3.60437 10.643C2.73526 11.5288 2.69555 12.9038 3.52936 13.794C4.70728 15.0456 5.96463 16.2179 7.13373 17.3681C10.5572 13.9527 13.9763 10.5372 17.3733 7.1438Z" fill="#FF7220"/>
<path d="M37.6309 48.8122C37.2162 48.4993 36.6692 48.279 36.4795 47.8867C36.2853 47.4901 36.4177 46.9216 36.4662 46.4368C36.4839 46.2738 36.6912 46.1239 36.828 45.9873C39.9559 42.8583 43.0882 39.7337 46.2117 36.6047C46.6617 36.1552 47.2131 35.8247 47.7866 36.1155C48.2146 36.3315 48.6646 36.7942 48.7881 37.2349C48.8984 37.6139 48.6911 38.2486 48.3999 38.5482C45.2146 41.7918 41.9897 45.0001 38.7559 48.1952C38.5044 48.4552 38.0986 48.5654 37.6309 48.8122Z" fill="#FF7220"/>
<path d="M43.8742 32.6651C43.7507 32.8854 43.6183 33.3041 43.3404 33.5817C40.1728 36.7768 36.992 39.9543 33.8023 43.123C33.1317 43.7884 32.2229 43.7928 31.6317 43.1891C31.0273 42.5721 31.0494 41.7171 31.742 41.0252C34.9008 37.8565 38.0684 34.7011 41.2316 31.5369C41.7301 31.0389 42.2992 30.845 42.9742 31.1402C43.5521 31.3958 43.8124 31.8718 43.8742 32.6651Z" fill="#FF7220"/>
<path d="M52.8132 28.0155C52.8309 28.8573 52.1823 29.5272 51.3529 29.5272C50.5765 29.5228 49.9015 28.8617 49.8794 28.0817C49.8574 27.2708 50.5412 26.5789 51.3618 26.5789C52.1647 26.5789 52.7956 27.2047 52.8132 28.0155Z" fill="#FF7220"/>
</svg>
