<svg width="25" height="24" viewBox="0 0 25 24" fill="none" xmlns="http://www.w3.org/2000/svg">
<path d="M16.9962 12.5979C16.9484 12.6697 16.9484 12.7414 16.9245 12.837C16.9006 13.1478 17.1396 13.4346 17.4504 13.4585C17.7612 13.4824 18.048 13.2434 18.0719 12.9326C18.0719 12.8609 18.0719 12.7892 18.0958 12.6697C18.0958 12.5501 18.0958 12.4784 18.0958 12.4067C18.0958 11.7135 17.9763 11.0441 17.7612 10.3987C17.4743 9.56201 16.9723 8.82095 16.3747 8.19942C15.6336 7.45836 14.7252 6.93245 13.6973 6.64559C13.2192 6.52606 12.6933 6.45435 12.1913 6.45435C12.0239 6.45435 11.8566 6.45435 11.6654 6.47825C11.498 6.50216 11.3307 6.52606 11.1634 6.54997C10.8526 6.59778 10.6374 6.90854 10.7092 7.1954C10.757 7.50617 11.0677 7.72131 11.3546 7.6496C11.498 7.62569 11.6176 7.60179 11.761 7.60179C11.7849 7.60179 11.8088 7.60179 11.8327 7.60179C11.9522 7.60179 12.0717 7.57788 12.1913 7.57788C13.5061 7.57788 14.7252 8.1038 15.5858 8.98828C16.4464 9.84887 16.9723 11.0202 16.9962 12.335V12.3828C16.9962 12.4784 16.9962 12.5501 16.9962 12.5979Z" fill="white"/>
<path d="M20.1517 13.1238C20.1277 13.4346 20.3668 13.7214 20.6776 13.7453C20.9883 13.7692 21.2752 13.5302 21.2991 13.2194C21.323 12.9565 21.323 12.6935 21.323 12.4305C21.323 11.9046 21.2752 11.4026 21.2035 10.9006C20.8927 8.98821 19.9604 7.26705 18.6456 5.95227C17.1396 4.44625 15.1316 3.46614 12.9084 3.29881C12.6694 3.2749 12.4064 3.2749 12.1674 3.2749C11.9044 3.2749 11.6414 3.2749 11.3785 3.29881C11.1155 3.32271 10.8526 3.34662 10.5896 3.39443C10.2789 3.44224 10.0637 3.753 10.1354 4.03986C10.1832 4.35063 10.494 4.56578 10.7809 4.49406C10.9482 4.47016 11.0916 4.44625 11.259 4.42235C11.3307 4.42235 11.4024 4.39844 11.4741 4.39844C11.7132 4.37454 11.9522 4.37454 12.1674 4.37454C12.9801 4.37454 13.7451 4.49406 14.4862 4.70921C15.777 5.09169 16.9245 5.78493 17.8568 6.71723C18.6217 7.48219 19.2433 8.41449 19.6496 9.41851C20.0082 10.3269 20.2234 11.3309 20.2234 12.3827C20.2234 12.4544 20.2234 12.5501 20.2234 12.6218C20.1756 12.813 20.1517 12.9565 20.1517 13.1238Z" fill="white"/>
<path d="M20.9644 3.65748C18.6934 1.38649 15.5858 0 12.1434 0C11.7848 0 11.4263 0.0239051 11.0677 0.0478102C10.7091 0.0717152 10.3505 0.119525 9.99197 0.191241C9.6812 0.239051 9.46606 0.549817 9.53777 0.836677C9.58558 1.14744 9.89635 1.36259 10.1832 1.29087C10.3505 1.26697 10.494 1.24306 10.6613 1.21916C10.8286 1.19525 10.996 1.17135 11.1633 1.17135C11.498 1.14744 11.8088 1.12354 12.1434 1.12354C15.2511 1.12354 18.0719 2.39051 20.1277 4.42244C22.1596 6.45437 23.4266 9.27517 23.4266 12.4067C23.4266 12.5741 23.4266 12.7653 23.4266 12.9326C23.4266 13.0761 23.4027 13.2195 23.4027 13.3868C23.3788 13.6976 23.6179 13.9845 23.9286 14.0084C24.2394 14.0323 24.5263 13.7932 24.5502 13.4825C24.5741 13.1239 24.598 12.7653 24.598 12.4306C24.598 9.01221 23.2115 5.90455 20.9644 3.65748Z" fill="white"/>
<path d="M23.7135 18.144L19.4823 15.873C18.0719 15.1081 18.0241 15.6101 16.542 17.1878C16.1835 17.5703 15.5141 18.5743 14.7252 18.3831C13.0758 17.9767 9.99203 15.5623 8.98802 14.4626C8.50992 13.9367 6.45408 11.4267 6.43018 10.6139C6.38237 9.37087 9.10755 8.74934 8.22306 6.38273L6.33456 2.15154C4.56558 -1.91233 -0.382766 4.58985 0.0236202 7.6258C1.07544 15.1081 14.1993 27.2041 21.5143 23.2119C23.1398 22.3035 25.3391 19.1241 23.7135 18.144Z" fill="white"/>
</svg>
