<svg width="76" height="76" viewBox="0 0 76 76" fill="none" xmlns="http://www.w3.org/2000/svg">
<path d="M61.945 75.6071C60.6832 75.2721 59.4656 74.8447 58.4553 73.9633C55.6362 71.5041 55.2701 67.3968 57.6259 64.4793C57.7009 64.3824 57.7759 64.2854 57.9259 64.0915C57.3171 63.501 56.6333 62.9633 56.1083 62.3022C54.026 59.6801 51.1407 58.9265 48.0084 58.781C45.6481 58.6753 43.2791 58.5915 40.9188 58.6356C33.8821 58.7766 27.3484 56.9169 21.1147 53.7967C14.1883 50.3283 8.23692 45.5599 2.86788 40.0335C0.335568 37.4289 -0.260029 34.1986 0.092907 30.7391C0.613488 25.5784 2.80169 21.0656 5.74429 16.8966C10.1383 10.6738 15.6662 5.72915 22.5882 2.4415C25.6808 0.973958 28.9234 0 32.391 0C35.5542 0 38.2806 1.00481 40.5703 3.29647C46.1952 8.92866 51.0657 15.0941 54.476 22.3348C57.273 28.2711 58.8171 34.4718 58.7288 41.078C58.6891 44.1673 58.9009 47.2699 59.1656 50.3504C59.2626 51.4962 59.8317 52.6024 60.1979 53.7217C60.242 53.854 60.3391 53.9862 60.4406 54.0875C61.6714 55.3259 62.9111 56.5555 64.1111 57.7542C64.9405 57.2959 65.7081 56.8199 66.5243 56.4453C67.2919 56.0927 67.936 56.3572 68.1787 57.0006C68.4169 57.6352 68.0904 58.0979 67.3669 58.5034C66.6302 58.9176 65.9067 59.4024 65.2934 59.9841C64.517 60.7201 64.014 60.7906 63.2287 60.0106C61.8699 58.6576 60.5156 57.2959 59.2274 56.009C58.173 57.0579 57.1538 58.0715 56.0642 59.1556C57.0038 60.0855 58.0494 61.1212 59.095 62.1524C59.4082 62.4653 59.7259 62.7738 60.0347 63.0911C60.8773 63.9461 60.9038 64.3427 60.0215 65.1712C58.7068 66.4052 58.0627 67.8551 58.3935 69.6708C58.7906 71.8567 60.7935 73.4565 63.0567 73.3903C65.2714 73.3286 67.164 71.6143 67.4419 69.4328C67.4464 69.4064 67.4507 69.3844 67.4507 69.3579C67.4993 67.4453 67.8963 67.4849 69.4448 67.3571C71.2448 67.2073 72.7713 65.8808 73.2918 64.1444C73.8124 62.3948 73.2124 60.4381 71.8051 59.279C70.8963 58.5342 70.7022 57.904 71.2051 57.3311C71.6948 56.7758 72.4051 56.8684 73.2742 57.6132C74.4742 58.64 75.2462 59.918 75.5683 61.4693C75.5992 61.6103 75.6609 61.7426 75.7095 61.8748C75.7095 62.5138 75.7095 63.1528 75.7095 63.7962C75.6742 63.8579 75.6168 63.9152 75.5992 63.9813C74.9683 67.0134 73.1066 68.8467 70.1066 69.5166C69.6654 69.6135 69.661 69.8559 69.586 70.1644C68.9993 72.6367 67.5302 74.3467 65.1302 75.2325C64.7243 75.3823 64.2964 75.4881 63.8773 75.6115C63.2243 75.6071 62.5846 75.6071 61.945 75.6071ZM9.15456 43.1008C9.24279 43.1449 9.34425 43.1713 9.41483 43.2286C13.4295 46.6661 17.7265 49.6893 22.4823 52.025C27.4322 54.4577 32.6115 56.0883 38.1659 56.2911C40.7247 56.3836 43.2879 56.3351 45.8467 56.4277C48.4805 56.5202 51.1142 56.648 53.6112 57.6484C53.801 57.7233 54.1759 57.5867 54.348 57.4237C55.4156 56.4056 56.4391 55.3391 57.498 54.3123C57.7891 54.0302 57.8024 53.8011 57.6965 53.4133C57.3435 52.1132 56.8803 50.8087 56.7921 49.4822C56.5892 46.4678 56.5362 43.4401 56.5097 40.4169C56.4789 36.7282 55.9803 33.1189 54.8995 29.5888C52.7642 22.6169 49.0893 16.4999 44.5187 10.881C44.0511 10.3036 43.5614 9.74395 42.9526 9.0212C43.2305 12.9214 42.3791 16.3854 40.8791 19.6906C37.235 27.7291 31.4777 33.9253 24.0308 38.5704C19.5353 41.3688 14.7089 43.2198 9.15456 43.1008ZM2.21493 32.0303C2.23258 33.9782 2.50612 35.6441 3.41493 37.1381C4.95903 39.6853 7.38987 40.6285 10.2178 40.7254C13.4118 40.8356 16.403 39.9409 19.2618 38.61C26.0117 35.4634 31.3498 30.6465 35.5895 24.5868C38.2718 20.7571 40.2747 16.6101 40.7247 11.877C41.2453 6.39902 38.5232 2.08453 31.9807 2.22115C29.5896 2.26963 27.2955 2.84695 25.1073 3.77683C16.3191 7.50518 9.80306 13.7499 5.19725 22.022C3.43698 25.1906 2.31199 28.584 2.21493 32.0303Z" fill="#FF7220"/>
</svg>
