<svg width="76" height="76" viewBox="0 0 76 76" fill="none" xmlns="http://www.w3.org/2000/svg">
<path d="M44.8173 41.621C43.8203 43.992 42.0247 45.3626 39.5012 45.7989C38.6321 45.9487 37.9792 45.5741 37.8645 44.847C37.7542 44.1551 38.1998 43.5866 39.0777 43.4808C41.2439 43.2252 43.1277 40.8498 43.0527 38.7388C43.0174 37.7296 43.1321 36.7204 43.1762 35.7112C43.2247 34.702 43.2732 33.6928 43.3262 32.6571C43.2203 32.6704 43.1365 32.6571 43.0924 32.6924C36.938 37.571 32.2528 43.5513 29.4293 50.9243C27.1264 56.9399 26.3279 63.1582 26.822 69.5793C26.9455 71.1834 26.7205 72.8184 26.5794 74.4358C26.522 75.1277 25.8823 75.5332 25.2603 75.4406C24.6294 75.3437 24.1265 74.7663 24.2676 74.1053C24.7573 71.8445 24.3956 69.5837 24.3515 67.3229C24.0735 53.3041 29.2396 41.6871 39.7395 32.428C40.5512 31.7096 41.3983 31.0309 42.21 30.3126C42.9335 29.6736 43.71 29.3474 44.6365 29.8102C45.5276 30.2553 45.7879 31.0353 45.7041 31.974C45.6909 32.1459 45.7041 32.3178 45.7041 32.6527C46.6526 31.172 47.5305 29.8102 48.4305 28.4043C48.3467 28.3603 48.254 28.2854 48.1481 28.2633C45.6158 27.7213 43.5071 26.3991 41.6365 24.6628C41.0453 24.1119 40.9968 23.4068 41.4777 22.8955C41.9453 22.3976 42.5762 22.402 43.1982 22.8867C43.9923 23.5081 44.7556 24.178 45.6026 24.7201C47.7158 26.0686 49.9834 26.3022 52.4672 25.8659C57.9951 24.9007 63.5406 24.0237 69.1037 23.279C71.7684 22.922 73.3919 21.4809 72.986 18.1844C71.0714 17.5895 69.1258 16.9857 67.1802 16.3775C64.9567 15.6856 64.4009 14.9364 64.3524 12.5919C64.348 12.4465 64.3347 12.301 64.317 12.0763C64.0391 12.0631 63.7788 12.0366 63.523 12.0366C62.0936 12.0366 60.6641 12.0234 59.2348 12.0631C58.4759 12.0851 57.9377 11.8295 57.4745 11.2125C56.4289 9.81106 55.3789 8.40081 54.2231 7.09192C51.2496 3.72054 47.46 2.22215 42.8585 2.34995C43.0659 2.58352 43.2026 2.73336 43.3394 2.8832C43.8556 3.45171 43.8821 4.10836 43.4012 4.59754C42.9512 5.05587 42.3424 5.0118 41.7292 4.62398C40.9306 4.11717 40.1233 3.52222 39.2321 3.27983C37.3439 2.7598 35.6983 3.39882 34.3263 4.77382C30.4572 8.6476 26.5882 12.517 22.7191 16.3864C21.0471 18.061 19.3751 19.7357 17.6986 21.4104C15.8633 23.2393 15.1839 25.4032 15.9648 27.8975C16.7501 30.3963 18.581 31.7934 21.1089 32.2208C25.2382 32.9171 28.6573 31.6127 31.1984 28.2633C33.8013 24.8258 35.8836 21.0931 37.2733 16.9945C37.4542 16.4569 37.7013 15.9897 38.3189 15.8663C39.2586 15.6768 39.9777 16.6155 39.563 17.6159C38.6674 19.771 37.8027 21.9568 36.7131 24.0149C35.716 25.9011 34.4851 27.6728 33.2719 29.44C29.5617 34.8342 22.4544 36.1651 17.3148 33.3314C16.9574 33.7589 16.5825 34.1996 16.2163 34.6491C10.5075 41.621 6.06496 49.3466 2.51354 57.6098C2.43413 57.7905 2.36795 57.9755 2.27971 58.1518C1.94001 58.8305 1.31798 59.0905 0.695927 58.8217C0.0871119 58.5529 -0.177607 57.8962 0.1268 57.2087C0.995905 55.252 1.85179 53.2865 2.79148 51.365C6.17085 44.4504 10.2693 37.9985 15.2501 32.1151C15.3295 32.0225 15.3913 31.9212 15.4883 31.7889C14.4472 30.5594 13.7148 29.18 13.4457 27.589C12.934 24.5438 13.8296 21.948 16.0001 19.7754C19.3795 16.3908 22.7632 13.0106 26.1426 9.62596C28.2867 7.47974 30.4396 5.34673 32.5705 3.18729C34.0969 1.64042 35.9189 0.860373 38.0939 0.723755C39.2851 0.648835 40.4542 0.221353 41.6453 0.102363C47.5217 -0.474959 52.4628 1.3804 56.3275 5.90643C57.223 6.9553 58.0569 8.05706 58.8818 9.16763C59.1774 9.56867 59.4951 9.71411 59.9892 9.7097C63.7347 9.67444 67.4802 9.66122 71.2258 9.66122C71.7861 9.66122 72.3684 9.69207 72.9066 9.84191C74.3669 10.2474 75.3816 11.6003 75.3992 13.1472C75.4257 15.3683 75.4345 17.5851 75.3948 19.8062C75.3419 22.6311 73.2684 25.0021 70.4626 25.4428C64.3832 26.3991 58.2995 27.3202 52.2202 28.2854C51.8717 28.3426 51.4746 28.5586 51.2452 28.823C49.1408 31.2469 47.6408 34.0409 46.2908 36.9275C46.0526 37.4388 45.8144 37.9544 45.5585 38.4568C45.2452 39.0738 45.3688 39.3029 46.0526 39.3514C48.0158 39.4924 49.9923 39.5718 51.9467 39.7877C56.2393 40.2725 59.7245 43.7364 60.3245 48.0289C60.4348 48.8089 60.5583 49.589 60.62 50.3734C60.6597 50.9111 60.8892 51.0653 61.4097 51.0741C62.3936 51.0829 63.3862 51.105 64.3611 51.246C67.339 51.6779 69.1831 54.5513 68.3934 57.4908C67.9832 59.0112 67.5464 60.5272 67.0567 62.0256C66.0288 65.181 63.7568 66.7191 60.5186 67.0188C57.673 67.2832 54.8319 67.6137 51.9908 67.9134C50.5923 68.0633 49.9878 69.2179 50.6364 70.4871C51.1481 71.4963 51.6599 72.5099 52.1408 73.5324C52.5422 74.3829 52.3525 75.0352 51.6555 75.3525C50.9981 75.6522 50.3982 75.3613 50.0055 74.5636C49.4938 73.5236 48.9864 72.4835 48.4702 71.4523C47.1291 68.7684 48.7923 65.8377 51.7878 65.5468C54.876 65.2472 57.9598 64.9078 61.0436 64.542C62.9097 64.3217 64.1582 63.242 64.745 61.4747C65.2391 59.9807 65.6714 58.4647 66.0861 56.9443C66.5847 55.1242 65.4597 53.6478 63.5582 53.5597C62.6494 53.52 61.7362 53.476 60.8274 53.4187C59.5436 53.3349 58.6127 52.5196 58.3833 51.246C58.2201 50.3249 58.123 49.3906 57.9818 48.4652C57.426 44.7941 54.6069 42.2512 50.8746 42.0353C48.8849 41.9031 46.8953 41.7577 44.8173 41.621ZM73.039 15.7165C73.039 14.8042 73.0522 14.0154 73.0346 13.2309C73.0169 12.5434 72.6331 12.0631 71.9626 12.041C70.2508 11.9881 68.5346 12.0234 66.6508 12.0234C66.9155 12.7153 66.3023 13.557 67.2597 13.8832C69.1346 14.531 71.0405 15.0907 73.039 15.7165Z" fill="#FF7220"/>
</svg>
