<svg width="70" height="76" viewBox="0 0 70 76" fill="none" xmlns="http://www.w3.org/2000/svg">
<path d="M29.3111 75.6134C28.5744 75.4416 27.8288 75.3005 27.1008 75.0934C23.6156 74.0798 20.9289 71.8939 18.5951 69.2188C16.1157 66.3763 14.254 63.1459 12.6834 59.7349C12.4717 59.2722 12.1055 58.8226 11.6996 58.5097C8.89818 56.3327 6.62173 53.7237 4.95852 50.5815C4.68941 50.0747 4.53501 49.5723 4.9453 49.0699C5.48353 48.4088 6.40115 48.5719 6.85996 49.4357C8.09524 51.767 9.67462 53.8207 11.6511 55.5702C15.4098 58.902 19.8436 60.8719 24.6921 61.9737C26.1303 62.2998 27.7008 61.5374 28.4199 60.2902C28.7155 59.779 28.667 59.3911 28.1597 59.0298C27.3214 58.4304 26.5361 57.7561 25.6847 57.17C25.4509 57.0113 25.0406 56.9541 24.7627 57.0334C24.0171 57.2537 23.4435 57.0554 22.8524 56.5927C20.0642 54.4068 18.8377 51.432 18.5377 48.021C18.3525 45.8836 18.348 43.7285 19.1113 41.6749C19.4068 40.8772 19.8348 40.1148 20.276 39.3832C20.6421 38.7794 21.2818 38.656 21.8024 38.9734C22.3627 39.3171 22.4818 39.9297 22.1112 40.5819C21.8333 41.0667 21.5598 41.5559 21.2333 42.1288C22.1597 42.4285 22.9847 42.7193 23.8274 42.9485C23.9906 42.9926 24.2906 42.8383 24.4053 42.6797C26.8141 39.3568 30.2287 37.8848 34.1596 37.3692C34.8169 37.2811 35.4831 37.2458 36.1889 37.1797C35.8978 36.0295 35.6066 34.8836 35.3066 33.6893C32.4522 36.0823 29.0023 36.4305 25.5082 36.5936C23.7215 36.6773 22.4642 35.5182 22.4509 33.7378C22.42 29.5291 22.42 25.3204 22.4509 21.1116C22.4642 19.2563 23.7612 18.1325 25.6229 18.225C27.7935 18.3352 29.9508 18.5203 32.0155 19.2563C34.3934 20.1024 36.2551 21.5259 37.1904 23.9586C37.2213 24.0423 37.2919 24.1172 37.3492 24.201C37.8654 23.5796 38.3507 22.9582 38.8757 22.3765C39.4316 21.7639 40.0492 21.7154 40.5521 22.1826C41.0374 22.6321 41.0242 23.2843 40.486 23.8837C36.811 27.9778 36.6345 32.5655 38.8095 37.3295C39.2904 38.3872 40.4374 39.2246 41.4256 39.9561C44.8094 42.4681 48.7094 43.1865 52.8299 42.9C57.846 42.5519 62.4915 40.9345 66.9517 38.6913C67.437 38.4489 67.6135 38.1492 67.6223 37.6116C67.7502 30.5207 65.0812 24.5668 60.1754 19.578C58.7504 18.1281 57.0784 16.9206 55.5078 15.6205C55.0093 15.2062 54.7887 14.7347 55.0843 14.1353C55.3313 13.6285 55.7946 13.4743 56.3328 13.5888C56.496 13.6241 56.6548 13.7166 56.7916 13.8136C62.7297 18.0047 67.0885 23.3548 69.0076 30.481C69.6782 32.971 69.9341 35.505 69.8193 38.0831C69.7752 39.0923 69.3649 39.9121 68.4605 40.3836C62.9371 43.2614 57.1533 45.2357 50.8358 45.1564C45.802 45.0903 41.3859 43.4377 37.8081 39.7887C37.6492 39.6256 37.4066 39.4493 37.2037 39.4449C33.9037 39.3788 30.7802 39.9693 28.0802 42.0186C27.692 42.3139 27.3303 42.6576 26.995 43.0146C26.4303 43.614 25.8259 44.1781 26.4523 45.1476C26.6597 45.4693 26.5538 46.007 26.5626 46.4433C26.5891 47.6552 26.5979 48.8671 26.6112 50.0835C26.695 50.1055 26.7832 50.132 26.867 50.154C27.2464 49.8984 27.6479 49.6736 28.0052 49.3872C29.8626 47.8888 32.0199 47.2674 34.3581 47.1043C35.3816 47.0338 36.4051 46.8619 37.4154 46.6636C38.6374 46.4256 39.683 47.0514 39.7712 48.2502C39.9477 50.6652 39.6036 53.0142 38.6154 55.2397C38.3154 55.914 37.6977 56.1564 37.1022 55.892C36.5507 55.6408 36.3389 55.0546 36.5728 54.3936C36.6389 54.2085 36.7272 54.0322 36.7978 53.8471C37.3713 52.309 37.6404 50.7225 37.5875 49.1183C33.8463 49.1404 30.2905 49.6472 27.4935 52.6175C27.8553 53.4681 27.9611 54.5346 27.3435 55.557C28.4155 56.9496 30.5861 57.2317 30.8508 59.4837C31.7773 58.9901 32.5934 58.5185 33.4493 58.1219C33.8022 57.9589 34.2787 57.8266 34.614 57.9412C34.9096 58.0382 35.2537 58.4833 35.2713 58.7962C35.2934 59.1443 35.064 59.6732 34.7772 59.8363C33.6743 60.4709 32.5096 60.9997 31.3625 61.5506C31.1243 61.6652 30.8552 61.7225 30.5773 61.815C30.8552 62.5201 31.1464 63.1944 31.389 63.8775C31.9405 65.4464 31.8875 67.077 31.7772 68.6988C31.689 70.0077 32.0243 71.1712 32.7125 72.2685C33.7007 73.8374 33.4493 74.7364 31.8258 75.6002C30.9876 75.6134 30.1493 75.6134 29.3111 75.6134ZM24.7141 26.1048C24.7141 26.7086 24.7141 27.1889 24.7141 27.7486C25.0053 27.7486 25.2435 27.7486 25.4862 27.7486C27.1847 27.7486 28.8832 27.7442 30.5817 27.7486C31.4861 27.7486 31.9581 28.11 31.9802 28.8019C32.0022 29.5247 31.5037 29.9566 30.5861 29.961C28.8876 29.9698 27.1891 29.9654 25.4906 29.9654C25.2303 29.9654 24.97 29.9654 24.6656 29.9654C24.6656 31.2787 24.6612 32.4818 24.67 33.6849C24.6744 34.1609 24.9259 34.4165 25.4156 34.39C27.4803 34.2799 29.5405 34.1344 31.5081 33.394C34.2434 32.3672 35.5669 30.4061 35.5537 27.374C35.5404 24.3596 34.1816 22.4029 31.4287 21.4025C29.4788 20.6974 27.4494 20.5255 25.4024 20.4726C25.1641 20.4682 24.7274 20.8076 24.7097 21.0147C24.6347 21.9358 24.6788 22.8701 24.6788 23.8925C25.6273 23.8925 26.5097 23.8837 27.3876 23.8925C28.292 23.9013 28.7464 24.2759 28.7508 24.981C28.7552 25.6861 28.2788 26.0916 27.4053 26.1004C26.5229 26.1136 25.6406 26.1048 24.7141 26.1048ZM30.7273 73.3879C30.6567 73.216 30.6302 73.097 30.5684 72.9957C29.7346 71.5942 29.4523 70.0782 29.5714 68.4608C29.6243 67.7248 29.6332 66.9845 29.5979 66.2485C29.5449 65.1688 29.2714 64.1507 28.6802 63.2076C27.1317 64.2168 25.4994 64.5606 23.8185 64.0318C21.4098 63.2737 19.0495 62.3703 16.6672 61.5241C16.4598 61.4492 16.2657 61.3523 15.8863 61.1892C17.126 63.5778 18.4628 65.6315 20.0554 67.5133C21.4451 69.1571 23.0024 70.6203 24.8685 71.7132C26.6553 72.7665 28.5699 73.3923 30.7273 73.3879ZM20.7436 44.3147C20.7436 45.5619 20.6642 46.6945 20.7612 47.8095C20.9818 50.3788 21.8156 52.6969 23.7832 54.4993C24.2685 54.9444 24.7406 54.8387 25.1994 54.5919C25.7068 54.3142 25.5523 53.8515 25.3935 53.4196C24.5377 51.0839 24.0612 48.6953 24.3435 46.1877C24.3744 45.9233 24.1362 45.4605 23.9156 45.3724C22.923 44.9713 21.8818 44.6805 20.7436 44.3147Z" fill="#FF7220"/>
<path d="M1.90085 37.3605C2.17438 35.8797 1.76409 34.5135 1.2391 33.0989C-1.20499 26.5192 0.0611581 20.4859 4.20375 14.9639C7.06694 11.1474 10.7375 8.23438 14.7345 5.70034C17.9815 3.64225 21.3962 1.89707 24.9476 0.429526C26.9108 -0.381369 28.5122 -0.0508416 29.9857 1.4784C31.8122 3.37342 33.6475 5.26845 35.4342 7.19873C35.9592 7.76724 36.4798 8.00522 37.2694 7.98759C42.2282 7.88623 47.0193 8.71475 51.5634 10.7728C51.7442 10.8522 51.9295 10.9227 52.0928 11.0329C52.6001 11.3766 52.8163 11.8437 52.5383 12.4299C52.2692 12.9984 51.7839 13.2099 51.1884 13.0028C50.584 12.7957 50.0149 12.5004 49.4193 12.2712C44.6944 10.4467 39.7929 9.91787 34.7636 10.3101C28.8872 10.7684 23.355 12.3858 18.233 15.3033C12.7669 18.4146 8.39927 22.5793 5.91107 28.4759C3.80228 33.4647 3.75817 38.6077 4.84786 43.8256C4.90522 44.09 4.98903 44.35 5.03315 44.6145C5.13903 45.2403 4.80375 45.7911 4.24346 45.9322C3.62141 46.0864 3.02583 45.7867 2.88465 45.1213C2.59348 43.7507 2.31995 42.3757 2.13907 40.9875C1.98907 39.7976 1.97585 38.59 1.90085 37.3605ZM2.77436 30.6574C5.64638 21.2175 12.2551 15.4796 20.7609 11.5176C20.6109 11.3502 20.527 11.262 20.452 11.1651C20.0197 10.6054 20.0329 9.99279 20.5094 9.58734C21.0256 9.15105 21.5462 9.20834 22.0403 9.64023C22.3006 9.86499 22.5255 10.1338 22.7947 10.3454C22.927 10.4511 23.152 10.5569 23.2932 10.5172C23.8755 10.3542 24.4402 10.1382 25.0138 9.9355C24.9652 9.82532 24.9608 9.77244 24.9299 9.746C24.4623 9.34496 23.9902 8.95273 23.5226 8.55169C22.8741 7.9964 22.7329 7.34416 23.1476 6.82413C23.5932 6.26885 24.2505 6.27766 24.9608 6.8638C25.7593 7.52044 26.5358 8.20354 27.3431 8.84696C27.5328 8.9968 27.8328 9.15105 28.049 9.11138C29.7607 8.81171 31.4592 8.46355 33.171 8.13302C33.171 8.11099 33.1886 8.04488 33.1622 8.01844C31.4813 6.25563 29.8181 4.47518 28.1108 2.73881C27.5725 2.19234 26.8622 2.06013 26.1255 2.35099C25.4196 2.63304 24.7138 2.92832 24.0211 3.24562C18.555 5.74 13.3933 8.72356 9.01251 12.897C6.29049 15.4928 4.07141 18.4411 2.92878 22.0813C2.05086 24.8621 2.01113 27.665 2.77436 30.6574Z" fill="#FF7220"/>
<path d="M54.6994 20.9443C56.9538 20.9399 58.7405 22.7072 58.7538 24.9547C58.767 27.22 56.9273 29.0665 54.6818 29.0445C52.4627 29.0224 50.6362 27.1847 50.6406 24.9768C50.6495 22.7556 52.4671 20.9488 54.6994 20.9443ZM56.5347 24.9636C56.5258 23.9367 55.7273 23.1567 54.6906 23.1611C53.6759 23.1699 52.8553 24.0028 52.8685 25.0032C52.8818 25.9992 53.7377 26.8321 54.7303 26.8189C55.745 26.8101 56.5435 25.9904 56.5347 24.9636Z" fill="#FF7220"/>
</svg>
