<svg width="36" height="36" viewBox="0 0 36 36" fill="none" xmlns="http://www.w3.org/2000/svg">
<path d="M15.3352 11.7541C15.3352 12.6682 15.3352 13.5541 15.6234 14.3838C12.593 17.9416 4.59141 27.3424 3.84609 28.0596C3.69796 28.1925 3.57947 28.3551 3.4983 28.5368C3.41714 28.7185 3.37513 28.9153 3.375 29.1143C3.375 29.712 3.74062 30.2885 4.05 30.612C4.51406 31.0971 6.49687 32.9323 6.8625 32.5807C7.94531 31.526 8.16328 31.2448 8.60625 30.8088C9.27422 30.1549 8.53594 28.819 8.76797 28.2776C9 27.7362 9.24609 27.6307 9.64687 27.5463C10.0477 27.462 10.7578 27.7502 11.3133 27.7573C11.8969 27.7643 12.2133 27.5182 12.6492 27.1104C13.0008 26.787 13.2539 26.4846 13.2609 26.0135C13.275 25.3807 12.3609 24.544 13.043 23.876C13.725 23.208 14.7094 24.312 15.4336 24.2276C16.1578 24.1432 17.0367 23.1377 17.1281 22.7088C17.2195 22.2799 16.3055 21.176 16.4461 20.5502C16.4953 20.3393 16.9242 19.8471 17.2477 19.7768C17.5711 19.7065 19.0055 20.262 19.3289 20.1916C19.7227 20.1073 20.1797 19.6924 20.5523 19.4604C21.6422 19.9315 22.6336 20.1213 23.9062 20.1213C28.7227 20.1213 32.625 16.3666 32.625 11.7401C32.625 7.11352 28.7227 3.375 23.9062 3.375C19.0898 3.375 15.3352 7.12758 15.3352 11.7541ZM28.125 10.125C28.125 10.57 27.993 11.005 27.7458 11.375C27.4986 11.745 27.1472 12.0334 26.736 12.2037C26.3249 12.374 25.8725 12.4186 25.436 12.3318C24.9996 12.245 24.5987 12.0307 24.284 11.716C23.9693 11.4013 23.755 11.0004 23.6682 10.564C23.5814 10.1275 23.626 9.6751 23.7963 9.26396C23.9666 8.85283 24.255 8.50143 24.625 8.25419C24.995 8.00696 25.43 7.875 25.875 7.875C26.4717 7.875 27.044 8.11205 27.466 8.53401C27.8879 8.95597 28.125 9.52826 28.125 10.125Z" stroke="#2F2E33" stroke-width="1.2" stroke-linejoin="round"/>
</svg>
