<svg width="76" height="76" viewBox="0 0 76 76" fill="none" xmlns="http://www.w3.org/2000/svg">
<path d="M0 73.7923C3.03525 70.8175 6.07054 67.8428 9.08815 64.8813C7.20876 61.7699 5.76611 58.6806 4.8176 55.3797C1.43823 43.5997 2.93821 32.4675 9.33959 22.0008C9.69253 21.4235 10.0896 20.9299 10.866 21.1238C11.8145 21.3574 12.0881 22.2256 11.594 23.1687C10.4425 25.3634 9.11901 27.5008 8.24108 29.8057C4.04996 40.8277 4.77788 51.5808 10.3234 61.9991C10.394 62.1269 10.469 62.2547 10.5749 62.4309C10.694 62.2723 10.8087 62.1577 10.8837 62.0167C14.6954 55.0051 16.2351 47.5396 15.4101 39.5937C15.066 36.2708 14.2719 33.0625 13.0807 29.9467C12.7631 29.1138 12.8998 28.5585 13.4822 28.1971C14.2278 27.73 15.0792 27.9988 15.3616 28.9199C16.0939 31.2864 16.9233 33.6442 17.4086 36.0637C18.8777 43.4278 18.1851 50.6509 15.6351 57.7022C15.5954 57.8124 15.5557 57.927 15.4498 58.2354C15.741 57.9842 15.8998 57.8653 16.0366 57.7286C19.8218 53.9518 23.6026 50.175 27.379 46.3982C27.5511 46.2263 27.732 46.0456 27.8555 45.8385C33.9657 35.4952 34.301 24.9756 28.8128 14.2797C28.804 14.2577 28.7819 14.2444 28.6364 14.0814C27.9878 15.5489 27.2952 16.9195 26.7614 18.3518C24.4717 24.504 24.1762 30.7708 25.7908 37.1346C26.0688 38.2407 25.6188 38.9591 24.6614 38.9899C23.9688 39.012 23.5894 38.6814 23.3644 37.8309C22.5747 34.8385 22.213 31.7976 22.2703 28.7039C22.385 22.4591 24.1012 16.6859 27.3967 11.3799C28.2393 10.0269 29.2055 10.0137 30.0305 11.3755C35.3598 20.1543 36.5377 29.4707 33.6348 39.3116C33.5598 39.5717 33.476 39.8273 33.4054 40.0873C33.3922 40.1269 33.4231 40.1798 33.4363 40.2239C33.5157 40.3032 33.5951 40.3826 33.679 40.4663C33.8025 40.2239 33.8775 39.9374 34.0628 39.7523C36.0216 37.7736 37.998 35.8125 39.9612 33.8425C40.345 33.4547 40.7597 33.1859 41.3377 33.3269C42.2994 33.5605 42.6391 34.6666 41.9332 35.4202C41.0597 36.3545 40.1288 37.2403 39.2244 38.1438C37.9186 39.4527 36.6171 40.7571 35.3113 42.066C35.298 42.0793 35.2981 42.1101 35.276 42.2159C35.4789 42.163 35.651 42.1277 35.8186 42.0793C45.7979 39.0208 55.2698 40.1269 64.2167 45.5256C65.6197 46.3717 65.6241 47.3633 64.2079 48.1918C52.7772 54.8641 41.2229 55.0668 29.5584 48.8176C29.0643 48.5532 28.7952 48.5356 28.3805 48.9542C24.8953 52.471 21.3879 55.9614 17.8851 59.4606C17.7218 59.6281 17.563 59.7999 17.3954 59.985C19.2968 59.4518 21.1409 58.8304 23.0291 58.4205C33.9128 56.0628 44.1082 57.8388 53.589 63.6693C54.8375 64.4361 54.8331 65.4498 53.5845 66.2254C46.0052 70.9321 37.7686 72.9946 28.8569 72.3556C25.3232 72.1 21.8953 71.3684 18.5512 70.2182C17.6954 69.9229 17.3645 69.4822 17.4527 68.7903C17.5674 67.9001 18.2998 67.5211 19.2836 67.7943C21.1056 68.3011 22.9144 68.9049 24.7673 69.253C33.7672 70.9497 42.2994 69.5439 50.3552 65.2118C50.4787 65.1457 50.5846 65.0575 50.9287 64.8328C48.7846 63.8941 46.8655 62.8893 44.8405 62.193C33.3216 58.2487 22.3056 59.3945 11.8542 65.6745C11.541 65.864 11.2543 66.102 10.994 66.362C8.23666 69.1076 5.48377 71.862 2.72645 74.6076C2.38234 74.9513 1.99853 75.2554 1.63236 75.5771C1.08972 75.5771 0.547055 75.5771 0.00441601 75.5771C4.3084e-06 74.9734 0 74.3828 0 73.7923ZM61.4462 46.8433C51.8375 41.3036 39.4936 41.9382 31.3099 46.8609C40.12 51.9907 52.2478 52.1449 61.4462 46.8433Z" fill="#FF7220"/>
<path d="M70.4636 30.1846C67.3269 28.5408 64.1505 27.6373 60.7887 27.4302C55.6182 27.1129 50.8271 28.3424 46.411 31.0395C45.3699 31.6742 44.7699 31.5464 44.1567 30.4931C38.717 21.1502 38.7037 11.7896 44.1125 2.43349C44.8978 1.07171 45.9346 1.08934 46.7375 2.42467C50.7213 9.022 51.7139 16.0468 49.7772 23.4947C49.7419 23.6357 49.711 23.7768 49.6404 24.05C49.861 23.8913 49.9889 23.812 50.0948 23.7151C50.2757 23.5476 50.4345 23.3581 50.6198 23.195C52.6888 21.4014 54.4756 19.4226 54.8947 16.5668C58.4594 7.84532 64.7857 2.30568 73.9621 0.0625007C75.1532 -0.228364 75.89 0.525239 75.6209 1.71514C74.39 7.15342 71.7121 11.7632 67.6004 15.5356C66.7843 16.2848 65.8799 16.2011 65.4475 15.3373C65.099 14.6454 65.3946 14.1253 65.9196 13.6494C68.2622 11.5208 70.1239 9.03082 71.4518 6.15743C71.9018 5.18348 72.2724 4.17426 72.7621 2.97114C72.0562 3.20912 71.5489 3.35015 71.068 3.54847C63.3255 6.75238 58.3976 12.3978 56.3064 20.52C56.1873 20.9871 55.8873 21.4587 55.5476 21.8156C54.2462 23.1862 52.8962 24.5127 51.5153 25.9054C52.8609 25.6365 54.1183 25.3192 55.3977 25.1429C61.8917 24.2571 67.9313 25.544 73.4856 29.0343C74.4474 29.6381 74.4341 30.687 73.4591 31.2996C68.2357 34.5916 62.5402 35.9446 56.3991 35.31C54.9389 35.1601 53.4918 34.8076 52.0536 34.4859C50.8624 34.2214 50.4565 33.6617 50.6992 32.798C50.933 31.9738 51.5418 31.7447 52.68 32.0576C57.9123 33.4899 63.0563 33.2122 68.1033 31.2335C68.8621 30.9426 69.5857 30.5768 70.4636 30.1846ZM45.4889 27.6329C49.1198 20.1101 49.1286 12.7239 45.4846 5.23195C41.7302 11.6794 41.7081 21.1193 45.4889 27.6329Z" fill="#FF7220"/>
</svg>
