<svg width="40" height="41" viewBox="0 0 40 41" fill="none" xmlns="http://www.w3.org/2000/svg">
<circle opacity="0.6" cx="20" cy="20.873" r="20" fill="#D9D9D9"/>
<path d="M28.8205 10.373H11.2944C10.3367 10.373 9.5 11.0621 9.5 12.0085V29.5735C9.5 30.5251 10.3367 31.373 11.2944 31.373H28.8153C29.7781 31.373 30.5 30.5195 30.5 29.5735V12.0085C30.5056 11.0621 29.7781 10.373 28.8205 10.373ZM16.0095 27.8776H13.0011V18.5237H16.0095V27.8776ZM14.6094 17.1015H14.5878C13.625 17.1015 13.0016 16.3848 13.0016 15.4876C13.0016 14.574 13.6414 13.8741 14.6258 13.8741C15.6102 13.8741 16.2125 14.5688 16.2341 15.4876C16.2336 16.3848 15.6102 17.1015 14.6094 17.1015ZM27.0045 27.8776H23.9961V22.763C23.9961 21.5377 23.5583 20.7005 22.4698 20.7005C21.6383 20.7005 21.1461 21.263 20.9272 21.811C20.8452 22.0079 20.8231 22.276 20.8231 22.5498V27.8776H17.8147V18.5237H20.8231V19.8254C21.2609 19.202 21.9448 18.3048 23.5363 18.3048C25.5111 18.3048 27.005 19.6065 27.005 22.4129L27.0045 27.8776Z" fill="#2F2E33"/>
</svg>
