<svg width="81" height="70" viewBox="0 0 81 70" fill="none" xmlns="http://www.w3.org/2000/svg">
<path d="M0 26.3786C0.26029 24.5673 0.432368 22.7384 0.794128 20.9491C1.93235 15.3698 4.16024 10.2973 8.22783 6.1988C11.5498 2.84946 15.6218 0.817813 20.2982 0.262527C31.3804 -1.05958 40.7333 2.65996 48.6258 10.337C50.1567 11.8266 51.361 13.6026 52.1066 15.6255C53.2801 18.8117 52.5919 21.3634 50.0552 23.6286C47.7126 25.722 44.9023 27.0353 42.1317 28.4147C41.267 28.8466 40.3891 29.2432 39.4406 29.6927C40.4156 30.7901 41.3244 31.8301 42.2464 32.857C44.2494 35.0781 45.8332 37.5681 47.117 40.2608C47.5096 41.0805 47.3243 41.7812 46.6626 42.0897C46.0317 42.385 45.3303 42.1338 44.9906 41.3581C43.3274 37.5593 40.5789 34.5537 37.8657 31.5216C36.3436 29.8205 34.7995 28.137 33.2642 26.4403C33.026 26.1803 32.8495 25.9555 32.4216 26.2023C30.1496 27.5068 27.8555 28.7761 25.5129 30.0893C25.6673 30.4067 25.7776 30.6623 25.91 30.9135C27.7011 34.3554 29.5363 37.7752 31.2834 41.2391C33.8951 46.413 34.4422 51.8469 33.0701 57.457C32.5496 59.59 32.4481 61.6349 33.476 63.6577C33.8333 64.3628 33.5642 65.0239 32.9466 65.3368C32.3466 65.6365 31.7069 65.3853 31.3231 64.6669C30.1849 62.5339 29.9466 60.2687 30.5158 57.9462C31.2349 55.0199 31.7025 52.0716 31.2172 49.066C30.9878 47.6514 30.7363 46.1926 30.1849 44.8837C29.0511 42.1866 27.7099 39.5733 26.4173 36.8497C26.0511 37.0789 25.8173 37.2243 25.5834 37.3742C22.1776 39.5953 18.8203 41.9002 15.3395 43.9979C13.9542 44.8309 12.3263 45.3641 10.7425 45.7475C8.32051 46.3337 6.2426 45.4787 4.56615 43.6674C2.48824 41.4198 1.39855 38.6831 0.816208 35.7348C0.516212 34.2231 0.361785 32.6763 0.136789 31.147C0.110318 30.9708 0.0485287 30.8033 0 30.6314C0 29.2123 0 27.7977 0 26.3786ZM47.3817 22.831C48.0611 22.1655 48.639 21.6455 49.164 21.0725C50.2581 19.8871 50.4566 18.4944 50.0375 16.974C49.5522 15.2024 48.5419 13.7392 47.3199 12.4259C42.9347 7.70601 37.4465 4.85907 31.2878 3.23288C27.1629 2.14434 22.985 1.91517 18.8159 2.95523C12.5778 4.51532 8.3337 8.48606 5.56756 14.1535C3.11466 19.1775 2.33822 24.5365 2.55881 30.0673C2.67792 33.0993 3.14556 36.0697 4.37643 38.877C4.95877 40.2079 5.64256 41.4859 6.88666 42.3321C8.96016 43.7423 11.069 43.284 13.2175 42.407C10.8661 40.8425 10.6057 39.2912 12.3704 37.1186C13.0454 36.29 13.7998 35.5056 14.6115 34.8093C18.1586 31.7772 22.1115 29.3269 26.1217 26.978C30.4937 24.4175 34.9275 21.9628 39.7495 20.3278C41.0244 19.8959 42.3964 19.6094 43.7376 19.5257C45.9214 19.3891 47.117 20.4996 47.3817 22.831ZM23.3776 31.266C20.8409 33.1522 18.3704 34.9239 15.9836 36.8057C15.1542 37.4579 14.5189 38.3657 13.8527 39.1987C13.7292 39.3529 13.7734 39.8553 13.9189 39.9743C14.6116 40.534 16.6233 40.5208 17.3601 40.0228C19.7512 38.4098 22.1423 36.7969 24.5335 35.1839C24.7452 35.0429 24.9438 34.8842 25.182 34.7123C24.6041 33.5973 24.0438 32.5352 23.3776 31.266ZM37.7642 27.855C39.7406 26.8766 41.6288 25.9027 43.5523 25.0168C44.3067 24.6687 44.664 24.1707 44.8273 23.3906C45.0743 22.1831 44.8053 21.7821 43.5965 21.8967C40.5391 22.1875 37.8657 23.5801 35.0598 24.8582C35.9951 25.8938 36.8554 26.8458 37.7642 27.855Z" fill="#FF7220"/>
<path d="M69.6219 51.2475C68.7264 53.7463 67.9278 56.2671 66.9264 58.7042C65.9735 61.0223 64.6323 63.1333 62.7132 64.8035C59.0029 68.0383 55.2618 66.2622 53.056 63.4946C51.9883 62.1549 52.134 60.6168 53.0384 59.2286C53.6207 58.3384 54.3574 57.5319 55.0942 56.7563C56.3206 55.4606 57.6971 54.2972 58.8353 52.931C59.7265 51.8601 60.3574 50.5732 61.1912 49.2379C59.5809 49.0572 58.1912 48.9955 56.8412 48.7223C55.3898 48.427 53.9339 48.0436 52.5707 47.4839C51.0487 46.8581 50.3957 45.5051 50.3031 43.8965C50.1751 41.693 50.9384 39.7143 51.9795 37.8413C54.2824 33.7031 57.4368 30.4066 61.7867 28.3926C66.9484 25.9996 72.1586 27.1013 75.7718 31.4863C79.4468 35.9463 81.0747 41.1377 80.6071 46.9198C80.5188 47.9951 80.1835 49.0836 79.7777 50.0928C78.9483 52.1597 77.0556 53.1073 74.6777 52.6137C72.9351 52.2435 71.2366 51.6882 69.6219 51.2475ZM76.8527 50.062C77.6645 49.3965 77.8806 48.5636 78.0615 47.7175C78.4542 45.8929 78.3483 44.064 78.0483 42.2439C77.4571 38.6566 76.2086 35.3513 73.6454 32.6851C71.0248 29.9615 67.8749 28.9699 64.1867 30.0452C61.6808 30.7768 59.6118 32.2444 57.7809 34.0556C55.2972 36.5192 53.3781 39.3265 52.756 42.8521C52.6545 43.425 52.7781 44.0376 52.8001 44.6678C53.5898 44.1301 54.1766 43.6453 54.8427 43.3016C55.4383 42.9931 56.0339 43.1473 56.4089 43.7687C56.753 44.3372 56.5589 44.9675 55.9368 45.3949C55.6986 45.558 55.4604 45.7167 55.2221 45.8797C55.2442 45.9546 55.2663 46.0251 55.2883 46.1001C57.0795 46.316 58.8706 46.532 60.6617 46.7435C62.3294 46.9418 61.9014 47.1533 62.5852 45.5756C62.6117 45.5095 62.5896 45.4258 62.5896 45.3156C61.7602 45.2098 60.9265 45.1217 60.0971 44.9983C59.2853 44.8749 58.8882 44.3857 58.9588 43.6762C59.0294 43.0019 59.5677 42.5612 60.3706 42.6361C64.5485 43.0196 68.6293 43.8481 72.441 45.655C74.3777 46.5628 76.1601 47.7307 76.8527 50.062ZM65.1264 45.7607C64.9631 46.1265 64.822 46.4306 64.6896 46.7435C64.1514 47.9951 63.5999 49.2423 63.0882 50.5027C62.1617 52.7811 60.7191 54.6762 58.9588 56.3773C57.6397 57.6509 56.4089 59.0127 55.1736 60.3656C54.7677 60.8107 54.6309 61.3704 54.9265 61.9698C55.5706 63.2787 57.8824 64.3628 59.303 63.9882C60.9044 63.5651 61.9367 62.4061 62.8367 61.1281C64.7514 58.4089 65.9029 55.3416 66.6881 52.1465C67.147 50.2779 67.4116 48.3565 67.7734 46.4306C66.7896 46.1838 66.0043 45.9855 65.1264 45.7607ZM74.0689 50.062C73.1336 48.4843 71.616 47.8585 70.0102 47.2106C69.9528 47.7703 69.9043 48.2287 69.8513 48.7311C71.294 49.185 72.6836 49.6213 74.0689 50.062Z" fill="#FF7220"/>
<path d="M47.6074 54.5571C47.7133 51.7895 47.4353 49.0615 46.7383 46.3776C46.7074 46.2498 46.6809 46.122 46.6589 45.9942C46.5177 45.1304 46.8265 44.5487 47.5103 44.3813C48.1986 44.2138 48.8206 44.6545 49.0059 45.5271C49.2927 46.858 49.6235 48.1889 49.7647 49.5375C50.1838 53.6008 50.175 57.6552 49.178 61.648C48.5162 64.2966 47.4265 66.7514 45.0486 68.307C41.9295 70.3475 38.6428 70.3828 35.3341 68.7169C34.6591 68.3776 34.4385 67.6416 34.7561 67.0554C35.0737 66.4693 35.7399 66.2622 36.459 66.6191C38.0693 67.4256 39.7281 67.6856 41.4972 67.2934C43.7163 66.7998 45.1016 65.3675 46.0192 63.3932C46.8927 61.5158 47.2853 59.515 47.4486 57.4657C47.5368 56.4962 47.5633 55.5266 47.6074 54.5571Z" fill="#FF7220"/>
<path d="M19.6496 7.33147C23.1746 7.65759 26.4216 8.6624 29.0378 11.192C29.7436 11.8707 29.823 12.545 29.2804 13.1003C28.7642 13.6247 28.1157 13.5851 27.4231 12.924C25.2084 10.7954 22.4467 10.0286 19.4997 9.72009C19.2658 9.69365 19.0188 9.71127 18.7982 9.64075C18.207 9.44685 17.8982 9.02818 17.9512 8.39357C18.0041 7.78981 18.3659 7.45046 18.9438 7.34469C19.1688 7.29622 19.4114 7.33147 19.6496 7.33147Z" fill="#FF7220"/>
<path d="M24.4543 3.26363C27.3616 3.48398 30.1806 4.02605 32.7041 5.59055C33.2997 5.96074 33.8512 6.41907 34.3541 6.91266C34.8482 7.39743 34.8262 8.07612 34.4027 8.54326C33.9748 9.01041 33.2953 9.10296 32.7792 8.64022C30.4807 6.58213 27.6704 5.96956 24.7234 5.72276C24.5381 5.70954 24.3572 5.68751 24.1763 5.65666C23.3116 5.52004 22.8308 5.03086 22.9014 4.35658C22.9719 3.62501 23.5587 3.21515 24.4543 3.26363Z" fill="#FF7220"/>
<path d="M12.9093 15.3126C12.9754 14.1623 13.0284 13.0121 13.1078 11.8619C13.1696 10.9849 13.699 10.434 14.4004 10.4825C15.1239 10.5309 15.5122 11.0906 15.4989 12.0117C15.4725 13.8671 15.4063 15.7268 15.4769 17.5778C15.5078 18.3975 15.8034 19.2128 16.0195 20.0149C16.2534 20.8963 16.0195 21.5617 15.349 21.7821C14.6387 22.0113 14.0563 21.6587 13.7387 20.7993C13.0902 19.0277 12.8916 17.19 12.9093 15.3126Z" fill="#FF7220"/>
<path d="M63.846 37.2376C62.7652 37.2552 62.1563 36.5148 62.421 35.7436C63.0342 33.9719 64.1725 32.5264 65.5092 31.244C65.968 30.8033 66.5371 30.8738 67.0092 31.3013C67.4548 31.7023 67.5165 32.2179 67.2298 32.7292C67.0401 33.0685 66.7489 33.3505 66.5283 33.6723C65.9107 34.5801 65.3239 35.51 64.6798 36.3958C64.4063 36.7704 64.0269 37.0613 63.846 37.2376Z" fill="#FF7220"/>
<path d="M72.0603 37.0746C72.0603 37.2817 72.078 37.4933 72.0559 37.7004C71.9809 38.3747 71.4912 38.8286 70.8691 38.8242C70.2427 38.8198 69.8015 38.3527 69.6912 37.6872C69.4707 36.3298 69.2324 34.9725 68.9589 33.6239C68.7604 32.6544 69.003 32.0506 69.7486 31.8567C70.4677 31.6716 71.0015 32.0286 71.275 32.9364C71.5044 33.7121 71.7162 34.4921 71.8839 35.2854C72.0074 35.8715 72.0383 36.4753 72.1089 37.0702C72.0912 37.0702 72.0736 37.0702 72.0603 37.0746Z" fill="#FF7220"/>
</svg>
