<svg width="148" height="43" viewBox="0 0 148 43" fill="none" xmlns="http://www.w3.org/2000/svg">
<path d="M15.1885 5.1987C14.7176 4.24772 14.2013 3.45071 13.6489 2.78955C13.0964 2.13744 12.4805 1.59403 11.8012 1.17741C11.122 0.760786 10.3612 0.461903 9.50982 0.280764C8.65847 0.0996245 7.69843 0.00905476 6.61159 0.00905476H0V27.1256H6.30365V6.31271H6.63876C7.09161 6.31271 7.5354 6.47573 7.96108 6.80179C8.38676 7.12784 8.70375 7.49917 8.91206 7.90674L18.8747 27.1256H23.1134H27.3521L37.3147 7.90674C37.514 7.49917 37.831 7.13689 38.2657 6.80179C38.7004 6.46668 39.1352 6.31271 39.588 6.31271H39.9231V27.1256H46.2268V0.00905476H39.6152C38.5284 0.00905476 37.5683 0.0996245 36.717 0.280764C35.8656 0.461903 35.1048 0.760786 34.4256 1.17741C33.7463 1.59403 33.1304 2.12839 32.5779 2.78955C32.0255 3.44165 31.5092 4.24772 31.0382 5.1987L23.1043 20.831L15.1885 5.1987ZM50.873 0.00905476V27.1256H57.4846V0.00905476H50.873ZM68.679 6.31271H94.7178C95.7322 6.31271 96.2394 6.66593 96.2394 7.36332V10.7235V11.7107C96.2394 12.4081 95.7322 12.7613 94.7178 12.7613H68.679V6.31271ZM102.543 6.62065C102.543 2.2099 99.9346 0.00905476 94.7088 0.00905476H62.0674V27.1256H68.679V19.0649H85.3076L93.1419 27.1256H102.299L94.2197 19.0649H94.7178C99.9346 19.0649 102.552 16.8641 102.552 12.4533V10.7235L102.543 6.62065ZM118.873 2.30953L104.671 27.1256H112.334L115.313 21.8001H137.313L140.365 27.1256H147.991L133.817 2.2733C132.938 0.760784 131.553 0 129.678 0H122.831C122.224 0 121.708 0.0543429 121.309 0.15397C120.902 0.253596 120.548 0.398505 120.258 0.597758C119.969 0.787955 119.715 1.02344 119.498 1.31326C119.28 1.59403 119.072 1.92914 118.873 2.30953ZM127.586 6.31271C127.903 6.31271 128.211 6.41233 128.518 6.60253C128.826 6.79273 129.098 7.11878 129.352 7.57163L134.061 15.8406H118.538L123.184 7.5988C123.655 6.73839 124.262 6.31271 124.977 6.31271H127.586Z" fill="#F9F8FB"/>
<path d="M15.1885 5.1987C14.7176 4.24772 14.2013 3.45071 13.6489 2.78955C13.0964 2.13744 12.4805 1.59403 11.8012 1.17741C11.122 0.760786 10.3612 0.461903 9.50982 0.280764C8.65847 0.0996245 7.69843 0.00905476 6.61159 0.00905476H0V27.1256H6.30365V6.31271H6.63876C7.09161 6.31271 7.5354 6.47573 7.96108 6.80179C8.38676 7.12784 8.70375 7.49917 8.91206 7.90674L18.8747 27.1256H23.1134H27.3521L37.3147 7.90674C37.514 7.49917 37.831 7.13689 38.2657 6.80179C38.6914 6.47573 39.1352 6.31271 39.588 6.31271H39.9231V27.1256H46.2268V0.00905476H39.6152C38.5284 0.00905476 37.5683 0.0996245 36.717 0.280764C35.8656 0.461903 35.1048 0.760786 34.4256 1.17741C33.7463 1.59403 33.1304 2.12839 32.5779 2.78955C32.0255 3.44165 31.5092 4.24772 31.0382 5.1987L23.1043 20.831L15.1885 5.1987ZM50.873 0.00905476V27.1256H57.4846V0.00905476H50.873ZM68.679 6.31271H94.7178C95.7322 6.31271 96.2394 6.66593 96.2394 7.36332V10.7235V11.7107C96.2394 12.4081 95.7322 12.7613 94.7178 12.7613H68.679V6.31271ZM102.543 6.62065C102.543 2.2099 99.9346 0.00905476 94.7088 0.00905476H62.0674V27.1256H68.679V19.0649H85.3076L93.1419 27.1256H102.299L94.2197 19.0649H94.7178C99.9346 19.0649 102.552 16.8641 102.552 12.4533V10.7235L102.543 6.62065ZM118.873 2.30953L104.671 27.1256H112.334L115.313 21.8001H137.313L140.365 27.1256H147.991L133.817 2.2733C132.938 0.760784 131.553 0 129.678 0H122.831C122.224 0 121.708 0.0543429 121.309 0.15397C120.902 0.253596 120.548 0.398505 120.258 0.597758C119.969 0.787955 119.715 1.02344 119.498 1.31326C119.28 1.59403 119.072 1.92914 118.873 2.30953ZM127.586 6.31271C127.903 6.31271 128.211 6.41233 128.518 6.60253C128.826 6.79273 129.098 7.11878 129.352 7.57163L134.061 15.8406H118.538L123.184 7.5988C123.655 6.73839 124.262 6.31271 124.977 6.31271H127.586Z" fill="#F9F8FB"/>
<path d="M103.883 37.6588V34.996H100.605V33.6556H103.883H105.224H108.503V34.996H105.224V37.0791V40.5117H103.883V37.6588ZM122.84 37.2693L119.471 33.6556H121.3L123.084 35.5666L123.754 36.2912L124.425 35.5666L126.209 33.6556H128.038L124.669 37.2693L124.425 37.532V38.9721V40.5117H123.754H123.084V38.9721V37.532L122.84 37.2693ZM139.414 31.2012H8.57695L17.8875 42.9752H130.085L139.414 31.2012ZM86.1046 36.4089V37.7494H82.5634V39.1623H88.2059V40.5027H82.5634H81.2229V39.1623V37.7494V36.4089V34.996V33.6556H82.5634H88.2059V34.996H82.5634V36.4089H86.1046ZM66.3786 36.4089V37.7494H63.2086V39.1623V40.5027H61.8591V39.1623V37.7494V36.4089V34.996V33.6556H63.1996H68.8421V34.996H63.1996V36.4089H66.3786ZM45.5203 33.6556L47.8842 37.7403L48.6631 39.0807L49.4873 40.5117H47.9386L47.1144 39.0807H42.3866L41.5625 40.5117H40.0137L40.8379 39.0807L41.6168 37.7403L43.9807 33.6556H45.5203ZM27.4789 37.0791C27.5694 37.2512 27.6238 37.4505 27.6238 37.6588V39.2619C27.6238 39.9502 27.0532 40.5117 26.3467 40.5117H24.8976H21.2114C20.505 40.5117 19.9344 39.9502 19.9344 39.2619V38.8634L21.302 38.492V39.1713H26.2381V37.7584H21.9179H21.302H21.2114C20.7224 37.7584 20.2967 37.4867 20.0793 37.0882C19.9887 36.9161 19.9344 36.7169 19.9344 36.5086V34.9055C19.9344 34.2171 20.505 33.6556 21.2114 33.6556H25.278H26.3558C27.0622 33.6556 27.6328 34.2171 27.6328 34.9055V35.304L26.2652 35.6753V34.996H21.3292V36.4089H24.2274H26.2652H26.3558C26.8449 36.4089 27.2705 36.6806 27.4789 37.0791ZM142.059 31.2012L132.748 42.9752H138.68L148 31.2012H142.059ZM46.3264 37.7403L44.7414 34.996L43.1565 37.7403H46.3264ZM15.2519 42.9752L5.94138 31.2012H0L9.31057 42.9752H15.2519Z" fill="white"/>
<path d="M103.883 37.6588V34.996H100.605V33.6556H103.883H105.224H108.503V34.996H105.224V37.0791V40.5117H103.883V37.6588ZM122.84 37.2693L119.471 33.6556H121.3L123.084 35.5666L123.754 36.2912L124.425 35.5666L126.209 33.6556H128.038L124.669 37.2693L124.425 37.532V38.9721V40.5117H123.754H123.084V38.9721V37.532L122.84 37.2693ZM139.414 31.2012H8.57695L17.8875 42.9752H130.085L139.414 31.2012ZM86.1046 36.4089V37.7494H82.5634V39.1623H88.2059V40.5027H82.5634H81.2229V39.1623V37.7494V36.4089V34.996V33.6556H82.5634H88.2059V34.996H82.5634V36.4089H86.1046ZM66.3786 36.4089V37.7494H63.2086V39.1623V40.5027H61.8591V39.1623V37.7494V36.4089V34.996V33.6556H63.1996H68.8421V34.996H63.1996V36.4089H66.3786ZM45.5203 33.6556L47.8842 37.7403L48.6631 39.0807L49.4873 40.5117H47.9386L47.1144 39.0807H42.3866L41.5625 40.5117H40.0137L40.8379 39.0807L41.6168 37.7403L43.9807 33.6556H45.5203ZM27.4789 37.0791C27.5694 37.2512 27.6238 37.4505 27.6238 37.6588V39.2619C27.6238 39.9502 27.0532 40.5117 26.3467 40.5117H24.8976H21.2114C20.505 40.5117 19.9344 39.9502 19.9344 39.2619V38.8634L21.302 38.492V39.1713H26.2381V37.7584H21.9179H21.302H21.2114C20.7224 37.7584 20.2967 37.4867 20.0793 37.0882C19.9887 36.9161 19.9344 36.7169 19.9344 36.5086V34.9055C19.9344 34.2171 20.505 33.6556 21.2114 33.6556H25.278H26.3558C27.0622 33.6556 27.6328 34.2171 27.6328 34.9055V35.304L26.2652 35.6753V34.996H21.3292V36.4089H24.2274H26.2652H26.3558C26.8449 36.4089 27.2705 36.6806 27.4789 37.0791ZM142.059 31.2012L132.748 42.9752H138.68L148 31.2012H142.059ZM46.3264 37.7403L44.7414 34.996L43.1565 37.7403H46.3264ZM15.2519 42.9752L5.94138 31.2012H0L9.31057 42.9752H15.2519Z" fill="white"/>
<path d="M142.946 2.69009C142.946 2.48178 142.892 2.30064 142.792 2.13761C142.693 1.97459 142.557 1.8659 142.385 1.80251C142.213 1.73911 141.941 1.70288 141.561 1.70288H140.066V5.22605H140.782V3.75882H140.927C141.09 3.75882 141.207 3.76787 141.289 3.79504C141.361 3.82221 141.434 3.8675 141.506 3.93995C141.57 4.01241 141.696 4.18449 141.878 4.4562L142.394 5.22605H143.245L142.81 4.53771C142.638 4.266 142.502 4.07581 142.403 3.96712C142.303 3.85844 142.176 3.75882 142.022 3.66825C142.33 3.62296 142.566 3.51427 142.72 3.34219C142.874 3.17011 142.946 2.95275 142.946 2.69009ZM142.213 2.73538C142.213 2.84406 142.185 2.92557 142.14 2.99803C142.095 3.07048 142.022 3.11577 141.941 3.14294C141.859 3.17011 141.642 3.18823 141.298 3.18823H140.773V2.29158H141.325C141.615 2.29158 141.787 2.29158 141.841 2.30064C141.959 2.31875 142.05 2.36404 142.113 2.43649C142.185 2.51801 142.213 2.61764 142.213 2.73538Z" fill="#F0F0F0"/>
<path d="M141.47 0.634211C142.992 0.634211 144.223 1.86596 144.223 3.38753C144.223 4.9091 142.992 6.14085 141.47 6.14085C139.948 6.14085 138.717 4.9091 138.717 3.38753C138.717 1.86596 139.948 0.634211 141.47 0.634211ZM138.092 3.38753C138.092 5.25326 139.604 6.76578 141.47 6.76578C143.336 6.76578 144.848 5.25326 144.848 3.38753C144.848 1.52179 143.336 0.00927734 141.47 0.00927734C139.604 0.00927734 138.092 1.52179 138.092 3.38753Z" fill="#F0F0F0"/>
</svg>
