<svg width="72" height="67" viewBox="0 0 72 67" fill="none" xmlns="http://www.w3.org/2000/svg">
<path d="M23.3187 66.1153C15.96 65.9302 10.1895 63.3257 5.64105 58.1298C4.34842 56.6534 2.97639 55.1947 1.95288 53.5377C-0.482383 49.5757 -0.447078 45.3097 0.99996 41.0261C2.73376 35.8919 5.98517 31.7978 10.0925 28.3559C15.5365 23.7902 21.7658 20.8243 28.7716 19.5594C32.8612 18.8235 36.9465 18.8675 41.0053 19.9076C41.6758 20.0795 42.4523 19.8679 43.1714 19.7798C45.7699 19.4713 48.1522 18.6604 50.111 16.8271C51.5272 15.5006 52.5815 13.9361 53.1021 12.0763C53.9712 8.97814 55.5947 6.3824 57.9859 4.23617C58.8638 3.44731 59.6491 2.55709 60.5094 1.7462C63.0285 -0.624785 66.8269 -0.571895 69.2225 1.84757C71.5871 4.23618 71.6269 8.03944 69.249 10.503C67.4402 12.3804 65.5652 14.2005 63.7123 16.0382C62.2255 17.5102 60.355 18.3211 58.4403 19.0614C54.108 20.7449 51.6419 24.7818 52.0919 29.3915C52.1095 29.559 52.1624 29.7265 52.2286 29.8851C55.6918 38.5493 54.3286 46.5305 48.6595 53.8021C43.2287 60.7608 36.0377 64.6831 27.2716 65.7187C25.7981 65.895 24.329 66.014 23.3187 66.1153ZM18.5629 58.9275C19.0835 58.8966 19.9703 58.8393 20.8526 58.782C21.0247 58.7732 21.1967 58.7644 21.3688 58.7424C29.1995 57.7464 36.0333 54.5469 41.8832 49.2893C45.417 46.1118 48.161 42.3703 49.4978 37.7385C51.4301 31.0398 48.4742 25.174 41.9538 22.7369C38.4376 21.4236 34.7936 21.1548 31.1142 21.6175C22.829 22.6532 15.6865 26.1435 9.69099 31.9256C6.56309 34.94 4.15872 38.448 2.96315 42.6831C1.16758 49.0425 3.76609 54.6703 9.70424 57.2836C12.4086 58.4691 15.2674 58.8834 18.5629 58.9275ZM45.8758 21.8467C47.1596 23.0057 48.5801 24.2838 49.9831 25.553C50.6448 22.6884 52.0963 20.2337 54.5624 18.5326C55.8418 17.6512 57.3638 17.1356 58.7359 16.3776C59.9094 15.7253 61.1447 15.1039 62.1285 14.2225C63.999 12.5522 65.7196 10.7189 67.4799 8.92966C69.0284 7.35194 69.024 5.01622 67.5152 3.5002C66.0108 1.98859 63.6682 1.98418 62.08 3.51342C61.2814 4.28025 60.5491 5.11758 59.7197 5.84915C57.5359 7.77502 56.1286 10.1372 55.2948 12.9357C54.3992 15.9368 52.5462 18.3255 49.8639 19.9561C48.5669 20.7449 47.111 21.2738 45.8758 21.8467ZM51.6595 39.087C48.7169 47.0549 43.0214 52.5241 35.7597 56.4948C28.4937 60.4655 20.7732 62.2812 12.4262 60.8225C13.8512 61.5541 15.285 62.2504 16.7806 62.7572C20.1158 63.8942 23.5305 63.8281 26.9981 63.3962C32.4774 62.7131 37.445 60.8225 41.7729 57.3982C46.114 53.9651 49.4007 49.7476 50.9801 44.3534C51.4786 42.6391 51.7213 40.8851 51.6595 39.087Z" fill="#FF7220"/>
</svg>
