<svg width="38" height="38" viewBox="0 0 38 38" fill="none" xmlns="http://www.w3.org/2000/svg">
<path d="M0.0197877 29.2756C0.11478 28.8044 0.174425 28.3202 0.315809 27.8621C0.490329 27.2976 0.709031 26.7439 0.954244 26.2033C1.06028 25.9666 1.09563 25.7777 1.02273 25.5237C0.0418791 22.1777 -0.0906685 18.8166 0.910062 15.4534C1.59268 13.1605 2.81874 11.2107 4.80915 9.77117C4.90857 9.69952 4.97263 9.48023 4.94391 9.35212C4.77823 8.60955 4.45128 7.93429 3.99841 7.31765C3.7532 6.98328 3.49915 6.65325 3.27161 6.30802C2.96675 5.84554 3.00651 5.34832 3.35556 4.92493C3.71122 4.49502 4.23478 4.33869 4.7473 4.5493C5.33493 4.79031 5.91151 5.05954 6.52343 5.33095C6.57866 4.05642 6.24287 2.94474 5.53816 1.9351C5.44759 1.80483 5.35039 1.67889 5.26644 1.54645C5.02565 1.15345 5.05658 0.693143 5.34155 0.36094C5.63095 0.0243951 6.08161 -0.101538 6.51459 0.0895328C8.07202 0.771308 9.43284 1.32281 10.438 2.95994C11.2686 1.40532 12.7885 0.764795 14.2885 0.102561C14.7391 -0.0971951 15.2008 0.01571 15.4969 0.36094C15.7995 0.712684 15.8349 1.19688 15.5366 1.60507C15.0042 2.33027 14.569 3.0989 14.4166 3.99128C14.3437 4.41685 14.3238 4.85327 14.273 5.35701C14.8584 5.09645 15.3709 4.8663 15.8835 4.63832C16.5572 4.33869 17.0764 4.42988 17.4807 4.91624C17.8827 5.40043 17.8739 5.91936 17.4343 6.51212C16.8002 7.36542 16.1684 8.21221 15.9078 9.26961C15.8437 9.52799 15.9011 9.65393 16.1132 9.80592C17.706 10.9415 18.8194 12.4375 19.5064 14.244C19.6787 14.6956 19.5771 14.9952 19.2214 15.1146C18.8945 15.2254 18.6427 15.0538 18.4637 14.6131C17.3592 11.9012 15.4019 10.086 12.519 9.35429C8.60221 8.35769 4.86659 10.0448 2.98884 13.573C1.73406 15.9332 1.28119 18.4671 1.41595 21.0986C1.47339 22.2299 1.71197 23.3524 1.87324 24.4771C1.88649 24.5705 1.93067 24.6573 1.97044 24.7811C3.37544 23.4957 4.99914 22.9768 6.92549 23.3415C6.55657 22.397 6.0065 21.6653 5.22226 21.0899C5.04774 20.964 4.87322 20.7165 4.86438 20.5167C4.8445 20.0999 5.37248 19.8654 5.73478 20.1498C6.23183 20.5384 6.69574 20.977 7.11989 21.4417C7.37836 21.724 7.55509 22.0866 7.73182 22.4318C7.90192 22.764 8.02342 23.1201 8.16922 23.474C8.71046 23.411 9.24506 23.3394 9.78188 23.2873C10.6191 23.2048 11.4343 23.3068 12.1942 23.6781C12.435 23.7953 12.5278 23.6585 12.6559 23.5326C14.9932 21.2354 17.3326 18.9382 19.6699 16.641C23.6485 12.7306 27.6249 8.82234 31.6035 4.9119C32.0454 4.47765 32.2773 4.47765 32.7169 4.9271C35.5755 7.85613 37.3075 11.3193 37.778 15.36C38.8207 24.336 33.1764 32.5672 24.3819 34.8926C23.6021 35.0989 22.904 35.3812 22.2258 35.8328C19.7892 37.4439 16.5749 37.3874 14.1427 35.7698C14.0123 35.683 13.8798 35.594 13.7495 35.5071C13.4844 35.709 13.2436 35.9175 12.9807 36.0933C11.6353 36.9879 10.1707 37.2333 8.60884 36.7925C8.07865 36.6427 7.57939 36.6448 7.0492 36.7903C5.61769 37.1855 4.26792 36.964 2.99989 36.2149C2.61108 35.9848 2.50725 35.7069 2.68178 35.4094C2.86071 35.1054 3.18324 35.0598 3.57868 35.2921C4.63022 35.911 5.73919 36.0651 6.91665 35.7025C7.5087 35.5201 8.11841 35.4876 8.69941 35.696C10.301 36.267 12.3621 35.7503 13.5661 33.9633C15.044 31.7725 15.0109 28.2573 13.4556 26.1142C12.4174 24.6834 11.0101 24.1015 9.23623 24.4228C8.96892 24.4706 8.70383 24.5184 8.38572 24.5748C8.39676 24.8093 8.41444 25.0438 8.41664 25.2805C8.41885 25.4477 8.43211 25.6235 8.38792 25.7842C8.31502 26.0534 8.10516 26.1729 7.82681 26.1511C7.56171 26.1316 7.38719 25.9818 7.34522 25.7256C7.30767 25.4998 7.27232 25.2631 7.29662 25.0373C7.3408 24.6096 7.10001 24.5205 6.74213 24.4684C4.5286 24.1427 3.01977 24.7746 2.03229 26.5593C1.68988 27.176 1.44246 27.8708 1.29224 28.5591C0.934363 30.2136 1.10446 31.8355 1.83568 33.3858C2.00137 33.7354 1.8887 34.048 1.57942 34.1783C1.28561 34.3021 1.00285 34.1783 0.832743 33.8352C0.432893 33.034 0.205354 32.1829 0.0904794 31.2992C0.0750156 31.1798 0.0418784 31.0647 0.0175781 30.9475C0.0197872 30.3916 0.0197877 29.8336 0.0197877 29.2756ZM24.5344 33.6832C28.8112 32.6671 34.2169 28.6698 36.1124 22.3145C38.052 15.8073 35.7147 9.43029 32.1735 6.0149C31.7692 6.41658 31.3628 6.81609 30.9541 7.22212C30.9496 7.2156 30.9695 7.24817 30.9938 7.2764C33.0903 9.54536 34.3937 12.19 34.8487 15.221C34.968 16.0092 34.9967 16.8126 35.0166 17.6116C35.021 17.794 34.8465 18.048 34.6808 18.1435C34.5505 18.2195 34.239 18.1653 34.1264 18.0545C33.9938 17.9243 33.9364 17.6702 33.932 17.4683C33.9077 15.5294 33.5277 13.6664 32.7412 11.8882C32.0962 10.4334 31.2258 9.12197 30.1787 8.01463C24.8039 13.2973 19.4401 18.5691 14.1869 23.7302C16.5838 22.2733 19.2148 22.0344 21.837 23.5152C24.446 24.9874 25.6478 27.3063 25.6235 30.2765C25.714 30.2396 25.7914 30.2136 25.8643 30.1788C26.9489 29.6686 27.9475 29.0259 28.8576 28.2551C31.3451 26.1555 32.9312 23.5261 33.6271 20.3756C33.7133 19.9826 33.9673 19.8046 34.3009 19.8719C34.63 19.9392 34.8068 20.2258 34.7029 20.6036C34.5063 21.3288 34.3362 22.0648 34.0667 22.764C32.5049 26.8047 29.6993 29.699 25.6831 31.4642C25.5572 31.5185 25.4003 31.6032 25.3517 31.7117C25.0601 32.3718 24.795 33.0449 24.5344 33.6832ZM14.5116 34.6538C16.4269 36.2801 20.3127 36.6514 22.8687 33.9134C25.2612 31.3513 24.9828 27.3193 22.2722 25.0851C19.5042 22.8031 15.7796 23.537 14.2045 25.1676C16.2016 28.2812 16.248 31.4251 14.5116 34.6538ZM14.8474 9.01775C15.1368 7.69545 15.9497 6.68582 16.6633 5.60236C16.502 5.59367 16.3783 5.61756 16.2656 5.6675C15.5366 5.99318 14.812 6.32756 14.0852 6.65542C13.6191 6.86603 13.2148 6.66845 13.206 6.19511C13.1751 4.49502 13.2811 2.82098 14.3459 1.3684C14.3548 1.35755 14.3371 1.32932 14.315 1.2555C13.7936 1.54862 13.2679 1.80917 12.7774 2.124C11.653 2.84269 10.9947 3.8393 10.9726 5.19416C10.966 5.5611 10.7296 5.78474 10.4071 5.77823C10.1 5.76955 9.89896 5.55242 9.86362 5.20285C9.83269 4.90321 9.82164 4.59489 9.74432 4.30612C9.3025 2.64076 7.92622 1.9503 6.54994 1.30327C6.81724 1.91773 7.19058 2.51483 7.32534 3.15969C7.52195 4.09985 7.56834 5.07474 7.63241 6.03878C7.67438 6.67713 7.26569 6.89643 6.66923 6.61851C5.9579 6.28631 5.23993 5.96496 4.52418 5.64578C4.42919 5.60236 4.31873 5.59367 4.2149 5.56979C4.19281 5.60019 4.16851 5.63059 4.14642 5.66315C4.92403 6.70753 5.72594 7.74105 6.0065 9.04814C8.95567 7.67591 11.8695 7.65203 14.8474 9.01775Z" fill="#2F2E33"/>
<path d="M15.4204 14.4978C15.7252 14.1764 15.9594 13.9115 16.2135 13.6662C16.4785 13.41 16.8055 13.4013 17.0308 13.6206C17.2606 13.8442 17.2584 14.1591 16.9977 14.4261C16.6244 14.8104 16.2422 15.1882 15.8489 15.553C15.5618 15.8222 15.2856 15.8222 15.0006 15.5552C14.6008 15.1796 14.2098 14.7952 13.8276 14.4001C13.5802 14.146 13.5868 13.8486 13.8121 13.6249C14.0264 13.41 14.3556 13.4035 14.603 13.638C14.8703 13.8898 15.1089 14.1656 15.4204 14.4978Z" fill="#2F2E33"/>
<path d="M7.89751 17.9354C8.1869 17.6292 8.42107 17.3643 8.67291 17.119C8.95347 16.8454 9.28704 16.8367 9.519 17.0734C9.73549 17.2949 9.71782 17.6162 9.45935 17.8811C9.09043 18.2545 8.7193 18.6237 8.33712 18.9841C8.04331 19.262 7.75612 19.2598 7.46231 18.9819C7.08234 18.6215 6.70679 18.2524 6.34008 17.8811C6.07719 17.614 6.06173 17.3014 6.28264 17.0734C6.5146 16.8367 6.84597 16.8476 7.12873 17.1211C7.38057 17.3665 7.61253 17.6314 7.89751 17.9354Z" fill="#2F2E33"/>
<path d="M12.8995 17.9178C13.2044 17.6051 13.4429 17.3446 13.6992 17.0992C13.9665 16.8452 14.289 16.8408 14.5166 17.071C14.7353 17.2925 14.7397 17.5964 14.4945 17.8505C14.1123 18.2435 13.7213 18.6299 13.3192 19.0056C13.0453 19.2618 12.7449 19.2531 12.4687 18.9904C12.0799 18.6213 11.6955 18.2435 11.32 17.8613C11.0615 17.5964 11.0637 17.2816 11.3045 17.058C11.5299 16.8473 11.8391 16.8517 12.0954 17.0927C12.3561 17.3402 12.6013 17.6095 12.8995 17.9178Z" fill="#2F2E33"/>
<path d="M10.4304 14.4959C10.7088 14.1984 10.9407 13.9313 11.1926 13.6838C11.4665 13.4124 11.8156 13.3994 12.0409 13.6295C12.2574 13.851 12.2419 14.1767 11.9857 14.4372C11.6167 14.8107 11.2434 15.1776 10.8634 15.5381C10.5586 15.8268 10.2935 15.8268 9.99304 15.5424C9.60423 15.1733 9.22205 14.7955 8.84429 14.4133C8.60571 14.1702 8.59687 13.8467 8.80232 13.6339C9.01661 13.4081 9.36565 13.4059 9.62411 13.6512C9.88479 13.9053 10.1278 14.1789 10.4304 14.4959Z" fill="#2F2E33"/>
<path d="M28.2073 20.332C28.7684 20.61 29.2765 20.8227 29.7316 21.1137C29.8399 21.1832 29.8575 21.5718 29.7626 21.7195C29.6698 21.8628 29.3517 21.9865 29.1838 21.9409C28.764 21.8259 28.3642 21.6218 27.971 21.4285C27.7213 21.3048 27.6197 21.0529 27.7346 20.8141C27.8229 20.6317 28.0284 20.5057 28.2073 20.332Z" fill="#2F2E33"/>
<path d="M29.6942 17.9787C29.4733 17.9635 29.2501 17.9548 29.0292 17.9309C28.7023 17.8961 28.499 17.6768 28.5145 17.3772C28.53 17.0602 28.7244 16.867 29.027 16.8605C29.4688 16.8496 29.9151 16.8735 30.3547 16.9321C30.6419 16.9712 30.7987 17.1992 30.7788 17.4879C30.759 17.7746 30.5778 17.9569 30.284 17.9895C30.0896 18.0112 29.8908 17.9939 29.692 17.9939C29.6942 17.9895 29.6942 17.9852 29.6942 17.9787Z" fill="#2F2E33"/>
<path d="M28.6124 14.3006C28.2147 14.2875 28.0292 14.1442 27.9607 13.8815C27.89 13.6123 27.9982 13.3821 28.2501 13.2822C28.6588 13.1194 29.0807 12.9783 29.5071 12.8654C29.7744 12.7959 29.9909 12.9305 30.1013 13.1824C30.2162 13.4364 30.161 13.7056 29.918 13.8164C29.4673 14.0248 28.9835 14.1659 28.6124 14.3006Z" fill="#2F2E33"/>
<path d="M27.5889 24.8701C27.5027 24.983 27.4187 25.1936 27.2707 25.2566C27.1073 25.3261 26.8245 25.3326 26.6986 25.237C26.3451 24.9613 26.027 24.6334 25.7288 24.299C25.5498 24.0971 25.5476 23.8083 25.7619 23.6477C25.9188 23.5304 26.2634 23.4284 26.3716 23.5109C26.7825 23.8257 27.1316 24.2187 27.4961 24.5878C27.5425 24.6334 27.5425 24.7224 27.5889 24.8701Z" fill="#2F2E33"/>
<path d="M20.0404 25.958C20.036 26.2446 19.7908 26.4878 19.5014 26.4922C19.1987 26.4965 18.9447 26.2425 18.9513 25.9363C18.9557 25.6237 19.2053 25.3957 19.5235 25.4109C19.8239 25.4282 20.047 25.6627 20.0404 25.958Z" fill="#2F2E33"/>
</svg>
