<svg width="38" height="38" viewBox="0 0 38 38" fill="none" xmlns="http://www.w3.org/2000/svg">
<path d="M31.0359 37.2501C30.4041 37.0851 29.7944 36.8745 29.2885 36.4402C27.8769 35.2287 27.6935 33.2051 28.8732 31.7677C28.9108 31.7199 28.9483 31.6721 29.0234 31.5766C28.7186 31.2857 28.3762 31.0208 28.1133 30.6951C27.0706 29.4032 25.6258 29.0319 24.0573 28.9602C22.8754 28.9081 21.6892 28.8669 20.5073 28.8886C16.9837 28.9581 13.712 28.0418 10.5906 26.5046C7.12224 24.7958 4.14214 22.4465 1.45364 19.7237C0.185611 18.4405 -0.112629 16.849 0.0641004 15.1445C0.324776 12.602 1.4205 10.3786 2.89398 8.3246C5.09426 5.25879 7.86228 2.82264 11.3284 1.20288C12.877 0.47985 14.5007 0 16.2371 0C17.821 0 19.1862 0.495049 20.3328 1.6241C23.1494 4.39897 25.5883 7.43656 27.2959 11.0039C28.6965 13.9286 29.4697 16.9836 29.4255 20.2383C29.4056 21.7604 29.5116 23.2889 29.6442 24.8066C29.6928 25.3712 29.9778 25.9161 30.1611 26.4676C30.1832 26.5328 30.2318 26.5979 30.2826 26.6479C30.899 27.258 31.5197 27.8638 32.1206 28.4543C32.5359 28.2285 32.9203 27.994 33.329 27.8095C33.7134 27.6358 34.0359 27.7661 34.1574 28.0831C34.2767 28.3957 34.1132 28.6237 33.7509 28.8235C33.382 29.0276 33.0197 29.2664 32.7127 29.553C32.3239 29.9156 32.072 29.9503 31.6788 29.566C30.9984 28.8995 30.3202 28.2285 29.6751 27.5945C29.1471 28.1113 28.6368 28.6107 28.0912 29.1448C28.5617 29.6029 29.0853 30.1132 29.6088 30.6213C29.7657 30.7754 29.9247 30.9274 30.0794 31.0837C30.5013 31.505 30.5146 31.7004 30.0728 32.1086C29.4144 32.7165 29.0919 33.4309 29.2576 34.3254C29.4564 35.4024 30.4594 36.1905 31.5926 36.158C32.7016 36.1276 33.6493 35.283 33.7885 34.2082C33.7907 34.1951 33.7929 34.1843 33.7929 34.1713C33.8172 33.2289 34.016 33.2485 34.7914 33.1855C35.6928 33.1117 36.4571 32.4581 36.7178 31.6027C36.9785 30.7407 36.678 29.7766 35.9733 29.2056C35.5182 28.8387 35.421 28.5282 35.6729 28.2459C35.9181 27.9723 36.2737 28.0179 36.7089 28.3849C37.3098 28.8908 37.6964 29.5204 37.8577 30.2847C37.8732 30.3542 37.9041 30.4193 37.9284 30.4845C37.9284 30.7993 37.9284 31.1141 37.9284 31.4311C37.9107 31.4615 37.882 31.4898 37.8732 31.5223C37.5573 33.0162 36.625 33.9194 35.1228 34.2494C34.9019 34.2972 34.8997 34.4166 34.8621 34.5686C34.5683 35.7867 33.8327 36.6291 32.6309 37.0656C32.4277 37.1394 32.2134 37.1915 32.0035 37.2523C31.6766 37.2501 31.3563 37.2501 31.0359 37.2501ZM4.60164 21.2349C4.64582 21.2566 4.69662 21.2696 4.73197 21.2979C6.74226 22.9915 8.89394 24.4809 11.2754 25.6317C13.754 26.8302 16.3475 27.6336 19.1288 27.7335C20.4101 27.7791 21.6936 27.7552 22.9749 27.8008C24.2937 27.8464 25.6125 27.9094 26.8629 28.4022C26.9579 28.4391 27.1457 28.3718 27.2318 28.2915C27.7664 27.7899 28.2789 27.2645 28.8091 26.7586C28.9549 26.6196 28.9616 26.5067 28.9086 26.3157C28.7318 25.6751 28.4999 25.0324 28.4557 24.3789C28.3541 22.8938 28.3276 21.4021 28.3143 19.9126C28.2988 18.0953 28.0492 16.317 27.508 14.5778C26.4388 11.1429 24.5986 8.12919 22.3099 5.36084C22.0758 5.0764 21.8305 4.80065 21.5257 4.44457C21.6649 6.36613 21.2385 8.07274 20.4874 9.70118C18.6627 13.6616 15.7798 16.7143 12.0508 19.0029C9.79968 20.3816 7.38292 21.2935 4.60164 21.2349ZM1.12669 15.7807C1.13552 16.7404 1.27249 17.5611 1.72757 18.2972C2.50076 19.5522 3.71798 20.0168 5.13403 20.0646C6.73343 20.1189 8.23121 19.6781 9.66272 19.0224C13.0427 17.4721 15.7157 15.0989 17.8387 12.1135C19.1818 10.2266 20.1848 8.18348 20.4101 5.85154C20.6708 3.15267 19.3077 1.02701 16.0316 1.09432C14.8343 1.1182 13.6855 1.40263 12.5898 1.86077C8.18924 3.69766 4.92637 6.77433 2.62005 10.8498C1.73861 12.4109 1.17529 14.0828 1.12669 15.7807Z" fill="#2F2E33"/>
<path d="M2.3621 14.8731C2.39302 13.6593 2.93867 12.2675 3.6721 10.9344C3.83558 10.6348 4.16032 10.5631 4.43204 10.7173C4.69713 10.8693 4.76783 11.1537 4.62644 11.4794C4.33263 12.1568 4.0123 12.8256 3.76046 13.5204C3.50641 14.2217 3.42026 14.9556 3.49316 15.7047C3.60804 16.8815 4.40332 17.6544 5.60508 17.7543C6.57267 17.8347 7.50933 17.6696 8.38856 17.2984C12.7295 15.4571 15.8554 12.4065 17.6514 8.09657C17.9342 7.41913 18.0579 6.64182 18.0822 5.90359C18.1418 4.21218 17.0792 3.27854 15.3561 3.38276C13.9555 3.46744 12.6986 3.97985 11.499 4.64426C9.46441 5.77114 7.75014 7.26932 6.28549 9.04758C6.19271 9.16048 6.10655 9.2799 6.00714 9.38629C5.77518 9.63816 5.45486 9.67724 5.21627 9.49051C4.97548 9.30378 4.92687 8.98027 5.14116 8.7132C5.51671 8.24855 5.89668 7.78607 6.30758 7.35182C8.13231 5.42157 10.2023 3.81919 12.7273 2.85949C13.9489 2.39484 15.2103 2.12995 16.527 2.38833C18.0557 2.68796 19.0741 3.84524 19.2 5.37598C19.3127 6.7569 18.9857 8.05748 18.3782 9.2799C16.2928 13.4835 13.105 16.571 8.67355 18.3558C7.80095 18.7075 6.87973 18.8899 5.92981 18.8638C3.66547 18.803 2.32454 17.4243 2.3621 14.8731Z" fill="#2F2E33"/>
<path d="M16.3946 6.7266C16.3526 7.53648 15.8821 8.33767 15.2458 9.04984C14.5345 9.84669 13.7127 10.4981 12.5949 10.6392C11.4992 10.7782 10.7304 10.016 10.8674 8.92825C11.0264 7.66023 11.762 6.72225 12.7098 5.9254C13.2775 5.44772 13.9137 5.08295 14.6803 5.00478C15.7252 4.89622 16.4122 5.52155 16.3946 6.7266ZM15.3077 6.62455C15.2988 6.20767 15.1442 6.0535 14.7333 6.10561C14.5654 6.12733 14.3931 6.17509 14.2429 6.24892C13.209 6.75699 12.4601 7.53213 12.0846 8.61125C11.994 8.86963 11.9587 9.27348 12.1 9.4537C12.3165 9.72728 12.6987 9.53838 12.9837 9.40593C13.98 8.94562 14.6891 8.19871 15.131 7.21078C15.2171 7.02623 15.2502 6.81996 15.3077 6.62455Z" fill="#2F2E33"/>
</svg>
