<svg width="35" height="33" viewBox="0 0 35 33" fill="none" xmlns="http://www.w3.org/2000/svg">
<path d="M11.4672 32.5737C7.84848 32.4825 5.01078 31.1993 2.77404 28.6394C2.13837 27.912 1.46367 27.1933 0.960344 26.3769C-0.237216 24.425 -0.219854 22.3232 0.491739 20.2127C1.34435 17.6832 2.94326 15.6661 4.96306 13.9704C7.64021 11.721 10.7035 10.2597 14.1487 9.63655C16.1598 9.27395 18.1688 9.29566 20.1647 9.80807C20.4945 9.89275 20.8763 9.78854 21.2299 9.74511C22.5077 9.59312 23.6793 9.19361 24.6425 8.29036C25.3389 7.63682 25.8574 6.86602 26.1134 5.94975C26.5408 4.42335 27.3392 3.14448 28.5151 2.08708C28.9468 1.69842 29.333 1.25983 29.756 0.860318C30.9948 -0.307819 32.8627 -0.281762 34.0408 0.910259C35.2036 2.08708 35.2231 3.96087 34.0538 5.17461C33.1643 6.09956 32.2423 6.99629 31.3311 7.90171C30.6 8.62691 29.6801 9.02642 28.7385 9.39119C26.6081 10.2206 25.3953 12.2095 25.6166 14.4806C25.6253 14.5631 25.6513 14.6456 25.6839 14.7238C27.3869 18.9925 26.7166 22.9246 23.9288 26.5072C21.2581 29.9356 17.7218 31.8681 13.4111 32.3783C12.6865 32.4652 11.964 32.5238 11.4672 32.5737ZM9.12849 29.0324C9.38449 29.0172 9.82056 28.989 10.2545 28.9607C10.3391 28.9564 10.4237 28.9521 10.5083 28.9412C14.3591 28.4505 17.7197 26.8742 20.5964 24.2839C22.3342 22.7184 23.6836 20.875 24.341 18.593C25.2912 15.2927 23.8376 12.4027 20.6311 11.202C18.902 10.555 17.11 10.4225 15.3007 10.6505C11.2264 11.1608 7.71397 12.8804 4.76563 15.7291C3.22746 17.2142 2.04509 18.9426 1.45715 21.0291C0.574169 24.1623 1.85201 26.935 4.77214 28.2225C6.10204 28.8066 7.50788 29.0107 9.12849 29.0324ZM22.5598 10.7634C23.1911 11.3345 23.8897 11.9641 24.5796 12.5895C24.905 11.1781 25.6188 9.96875 26.8315 9.13064C27.4607 8.69639 28.2092 8.44236 28.8839 8.0689C29.461 7.74755 30.0684 7.4414 30.5522 7.00715C31.4721 6.18424 32.3182 5.281 33.1838 4.39947C33.9453 3.62216 33.9431 2.47139 33.2012 1.72448C32.4614 0.97974 31.3094 0.977568 30.5284 1.73099C30.1357 2.10879 29.7755 2.52133 29.3677 2.88176C28.2938 3.8306 27.6017 4.99439 27.1917 6.37314C26.7513 7.85177 25.8401 9.02859 24.521 9.83196C23.8832 10.2206 23.1673 10.4812 22.5598 10.7634ZM25.404 19.2574C23.957 23.183 21.1562 25.8776 17.5852 27.8339C14.012 29.7902 10.2154 30.6847 6.11072 29.966C6.81146 30.3265 7.51655 30.6695 8.252 30.9192C9.89214 31.4794 11.5713 31.4468 13.2766 31.2341C15.9711 30.8975 18.4139 29.966 20.5422 28.279C22.677 26.5876 24.2932 24.5097 25.0699 21.852C25.3151 21.0074 25.4344 20.1433 25.404 19.2574Z" fill="#2F2E33"/>
<path d="M6.24393 26.4204C5.89898 26.6049 5.58224 26.7721 5.23729 26.9567C4.86631 26.3183 4.70794 25.6452 4.6819 24.9417C4.6255 23.4175 5.14616 22.0605 5.95972 20.8098C7.53911 18.3824 9.77152 16.7517 12.4031 15.6357C14.1387 14.8997 15.9459 14.4936 17.842 14.5609C18.8248 14.5957 19.7816 14.7716 20.7231 15.1906C20.5669 15.5467 20.4237 15.8746 20.2871 16.1872C19.6818 16.0504 19.1025 15.8767 18.5124 15.7964C16.7942 15.5619 15.1323 15.8659 13.5226 16.4521C10.9734 17.3792 8.78875 18.8318 7.19851 21.0682C6.78197 21.6544 6.44569 22.3145 6.17885 22.9811C5.72976 24.0993 5.67552 25.2457 6.24393 26.4204Z" fill="#2F2E33"/>
<path d="M20.9556 12.8217C20.9469 13.1365 20.6757 13.3949 20.3612 13.3862C20.0466 13.3775 19.7884 13.1061 19.7971 12.7913C19.8058 12.4743 20.0748 12.2181 20.3894 12.2268C20.7083 12.2376 20.9643 12.5069 20.9556 12.8217Z" fill="#2F2E33"/>
<path d="M23.2835 13.9747C23.2814 14.2895 23.0145 14.5523 22.6999 14.5501C22.3853 14.5479 22.1228 14.283 22.125 13.966C22.1272 13.649 22.3919 13.3885 22.7064 13.3906C23.0232 13.395 23.2857 13.6599 23.2835 13.9747Z" fill="#2F2E33"/>
<path d="M32.59 2.90773C32.5921 3.22257 32.3296 3.48963 32.015 3.4918C31.7005 3.49397 31.4358 3.23125 31.4336 2.91642C31.4314 2.59942 31.6918 2.3367 32.0085 2.33453C32.3231 2.33018 32.5878 2.5929 32.59 2.90773Z" fill="#2F2E33"/>
</svg>
