<svg width="33" height="33" viewBox="0 0 33 33" fill="none" xmlns="http://www.w3.org/2000/svg">
<path d="M4.15697 23.7188H3.09375C2.79263 23.7188 2.54547 23.6222 2.35228 23.429C2.15909 23.2358 2.0625 22.9886 2.0625 22.6875V7.21875C2.0625 6.91763 2.15909 6.67047 2.35228 6.47728C2.54547 6.28409 2.79263 6.1875 3.09375 6.1875H21.6562C21.9574 6.1875 22.2045 6.28409 22.3977 6.47728C22.5909 6.67047 22.6875 6.91763 22.6875 7.21875V10.3125H28.0046C28.2624 10.3125 28.4828 10.3929 28.6657 10.5538C28.8485 10.7147 28.9613 10.924 29.0039 11.1818L30.7447 22.5256C30.788 22.848 30.7075 23.1275 30.5033 23.364C30.2992 23.6005 30.0468 23.7187 29.7464 23.7188H26.7816C26.8675 24.6214 26.7224 25.4647 26.3464 26.2484C25.9703 27.0322 25.4011 27.666 24.6386 28.15C23.8762 28.634 23.0543 28.8757 22.1729 28.875C21.2915 28.8743 20.4696 28.6327 19.7072 28.15C18.9448 27.6674 18.3755 27.0335 17.9994 26.2484C17.6234 25.4633 17.4783 24.6201 17.5642 23.7188H13.3743C13.4602 24.6214 13.3152 25.4647 12.9391 26.2484C12.563 27.0322 11.9938 27.666 11.2313 28.15C10.4689 28.634 9.647 28.8757 8.76562 28.875C7.88425 28.8743 7.06234 28.6327 6.29991 28.15C5.53747 27.6674 4.96822 27.0335 4.59216 26.2484C4.21609 25.4633 4.07103 24.6201 4.15697 23.7188V23.7188ZM4.89844 21.6562C5.34944 21.0114 5.90803 20.5064 6.57422 20.1413C7.24041 19.7763 7.97088 19.5937 8.76562 19.5938C9.56037 19.5938 10.2908 19.7763 10.957 20.1413C11.6232 20.5064 12.1818 21.0114 12.6328 21.6562H18.3047C18.8849 20.8182 19.6584 20.2166 20.625 19.8516V8.25H4.125V21.6562H4.89844ZM26.0391 21.6562H28.5203L27.9077 17.5312H22.6865V19.6257C23.374 19.7117 24.0078 19.9265 24.5881 20.2703C25.1683 20.614 25.6517 21.076 26.038 21.6562H26.0391ZM27.5859 15.4688L27.1023 12.375H22.6875V15.4688H27.5859ZM22.1719 26.8125C22.9027 26.7912 23.5098 26.5389 23.9931 26.0556C24.4764 25.5723 24.718 24.9652 24.718 24.2344C24.718 23.5036 24.4764 22.8965 23.9931 22.4132C23.5098 21.9299 22.9027 21.6882 22.1719 21.6882C21.4411 21.6882 20.834 21.9299 20.3507 22.4132C19.8674 22.8965 19.6257 23.5036 19.6257 24.2344C19.6257 24.9652 19.8674 25.5723 20.3507 26.0556C20.834 26.5389 21.4411 26.7912 22.1719 26.8125ZM8.76562 26.8125C9.49644 26.7912 10.1035 26.5389 10.5868 26.0556C11.0701 25.5723 11.3118 24.9652 11.3118 24.2344C11.3118 23.5036 11.0701 22.8965 10.5868 22.4132C10.1035 21.9299 9.49644 21.6882 8.76562 21.6882C8.03481 21.6882 7.42775 21.9299 6.94444 22.4132C6.46113 22.8965 6.21947 23.5036 6.21947 24.2344C6.21947 24.9652 6.46113 25.5723 6.94444 26.0556C7.42775 26.5389 8.03481 26.7912 8.76562 26.8125Z" fill="#FF7220"/>
</svg>
