<svg width="40" height="41" viewBox="0 0 40 41" fill="none" xmlns="http://www.w3.org/2000/svg">
<circle opacity="0.6" cx="20" cy="20.873" r="20" fill="#D9D9D9"/>
<g clip-path="url(#clip0_779_4667)">
<path d="M30.1623 14.529C29.3989 14.8667 28.5893 15.0884 27.7603 15.187C28.634 14.6644 29.288 13.842 29.6003 12.873C28.7803 13.361 27.8813 13.703 26.9443 13.888C26.3149 13.2146 25.4807 12.7679 24.5713 12.6176C23.6618 12.4672 22.7282 12.6215 21.9156 13.0564C21.1029 13.4914 20.4567 14.1827 20.0774 15.0228C19.6981 15.8629 19.607 16.8048 19.8183 17.702C18.1554 17.6186 16.5286 17.1865 15.0436 16.4336C13.5585 15.6808 12.2484 14.624 11.1983 13.332C10.8266 13.9704 10.6313 14.6962 10.6323 15.435C10.6323 16.885 11.3703 18.166 12.4923 18.916C11.8283 18.8951 11.1789 18.7158 10.5983 18.393V18.445C10.5985 19.4107 10.9327 20.3466 11.5441 21.094C12.1556 21.8415 13.0068 22.3544 13.9533 22.546C13.3369 22.713 12.6906 22.7376 12.0633 22.618C12.3302 23.4492 12.8503 24.1762 13.5509 24.6971C14.2515 25.218 15.0974 25.5068 15.9703 25.523C15.1028 26.2043 14.1095 26.708 13.0472 27.0051C11.9849 27.3023 10.8744 27.3872 9.7793 27.255C11.691 28.4844 13.9164 29.1371 16.1893 29.135C23.8823 29.135 28.0893 22.762 28.0893 17.235C28.0893 17.055 28.0843 16.873 28.0763 16.695C28.8952 16.1031 29.6019 15.37 30.1633 14.53L30.1623 14.529Z" fill="#2F2E33"/>
</g>
<defs>
<clipPath id="clip0_779_4667">
<rect width="24" height="24" fill="white" transform="translate(8 8.87305)"/>
</clipPath>
</defs>
</svg>
