<svg width="40" height="41" viewBox="0 0 40 41" fill="none" xmlns="http://www.w3.org/2000/svg">
<circle opacity="0.6" cx="20" cy="20.873" r="20" fill="#D9D9D9"/>
<g clip-path="url(#clip0_779_4670)">
<path d="M29.543 15.371C30 17.153 30 20.873 30 20.873C30 20.873 30 24.593 29.543 26.375C29.289 27.36 28.546 28.135 27.605 28.397C25.896 28.873 20 28.873 20 28.873C20 28.873 14.107 28.873 12.395 28.397C11.45 28.131 10.708 27.357 10.457 26.375C10 24.593 10 20.873 10 20.873C10 20.873 10 17.153 10.457 15.371C10.711 14.386 11.454 13.611 12.395 13.349C14.107 12.873 20 12.873 20 12.873C20 12.873 25.896 12.873 27.605 13.349C28.55 13.615 29.292 14.389 29.543 15.371ZM18 24.373L24 20.873L18 17.373V24.373Z" fill="#2F2E33"/>
</g>
<defs>
<clipPath id="clip0_779_4670">
<rect width="24" height="24" fill="white" transform="translate(8 8.87305)"/>
</clipPath>
</defs>
</svg>
